<?xml version="1.0" encoding="UTF-8" standalone="no"?>
<svg
   xmlns:dc="http://purl.org/dc/elements/1.1/"
   xmlns:cc="http://creativecommons.org/ns#"
   xmlns:rdf="http://www.w3.org/1999/02/22-rdf-syntax-ns#"
   xmlns:svg="http://www.w3.org/2000/svg"
   xmlns="http://www.w3.org/2000/svg"
   id="svg8"
   version="1.1"
   viewBox="0 0 52.916666 7.9374997"
   height="30"
   width="200">
  <defs
     id="defs2" />
  <metadata
     id="metadata5">
    <rdf:RDF>
      <cc:Work
         rdf:about="">
        <dc:format>image/svg+xml</dc:format>
        <dc:type
           rdf:resource="http://purl.org/dc/dcmitype/StillImage" />
        <dc:title></dc:title>
      </cc:Work>
    </rdf:RDF>
  </metadata>
  <g
     id="layer1">
    <path
       id="path915"
       d="M 16.117666,3.7904033 C 14.48149,3.698308 12.909852,3.1963841 11.293478,2.9825873 10.372613,2.860785 9.4408338,2.844301 8.5139275,2.7836873 7.4130759,2.7116987 6.3125315,2.6310914 5.2103006,2.5847872 c -1.1138503,-0.046792 -2.2296657,0 -3.3444988,0 -0.087503,0 -0.3168148,-0.068614 -0.26251,0 0.1133183,0.1431767 0.2940978,0.2608221 0.4764454,0.2703053 1.5715739,0.081732 3.1473954,0 4.7210931,0 3.2242427,0 6.4484867,0 9.6727297,0 0.203228,0 -0.406456,0 -0.609684,0 -1.119048,0 -2.238095,0 -3.357143,0 -1.889549,0 -3.7798694,-0.053965 -5.6686483,0 -0.077396,0.00222 -9.3071329,0.5821516 -9.4477526,0.5967003 -0.883311,0.091389 -1.7556263,0.273945 -2.6246243,0.4567909 -0.085191,0.017926 -0.3045098,0.1231582 -0.2194346,0.141627 0.3589724,0.077929 0.7335589,0.046562 1.1008791,0.049725 1.5579926,0.013414 3.1161676,0.014425 4.67415129,0 C 6.098718,4.0464411 6.768585,4.0817429 12.55366,3.5032357 14.149285,3.3436732 15.740266,3.136592 17.327261,2.9065355 c 0.208387,-0.030209 0.612741,0.027461 0.604622,-0.1829467 -0.0079,-0.2037421 -0.407835,-0.00442 -0.611681,0 C 12.294416,2.8324884 14.263985,2.6324612 9.1653028,3.519189 8.1251752,3.7000807 6.9845954,3.6538254 6.0668767,4.175725 c -0.019709,0.011208 0.024715,0.048347 0.047382,0.048795 0.8070323,0.015949 1.6165567,0.059247 2.4215692,0 1.0005952,-0.073641 1.9902831,-0.2559119 2.9835011,-0.3978002 0.863276,-0.1233252 1.724339,-0.2617484 2.585701,-0.3978 0.796747,-0.1258462 1.92445,0.2718281 2.388585,-0.3878866 0.405791,-0.5767872 -1.410863,-0.023783 -2.115693,0 C 11.823383,3.1272276 9.2714642,3.2822888 6.72027,3.4388335 5.8650631,3.4913101 5.0119766,3.5741998 4.1573346,3.6351916 4.1164359,3.63811 3.5570498,3.6693385 3.8614339,3.4356436 4.8425118,2.682409 7.6624274,1.4372619 8.4301379,1.1082769 10.366334,0.27856394 11.501047,-0.13047351 13.570091,-0.47217216 c 0.329118,-0.0543532 0.667486,-0.014928 1.000728,0 0.06054,0.002712 0.174016,-0.00798 0.174032,0.0526249 C 14.7453,1.3127681 13.957047,1.162943 12.291736,2.4212795 11.575594,2.9624078 10.839251,3.4762694 10.113641,4.0046346 9.6305887,4.3563775 9.139892,4.6979345 8.6657523,5.0616021 8.3859337,5.2762245 8.326843,5.4825558 8.3650377,5.4828201 9.4976036,5.4906571 12.002533,4.5916484 12.582462,4.4097672 17.580948,2.8421062 15.293718,3.4040908 20.936264,1.9235164 22.0238,1.6381528 23.108271,1.3303201 24.214576,1.1296826 c 0.360404,-0.065362 0.749525,-0.1101625 1.098849,0 0.111739,0.035238 0.112313,0.2863144 0.01474,0.3511814 -0.973791,0.6474145 -1.99307,1.246162 -3.077066,1.6847657 C 20.705721,3.7909161 19.068412,4.159215 17.477497,4.6573799 10.647803,6.7959713 13.763403,6.020477 6.0345711,7.539534 c -0.064527,0.012682 -0.1739159,0.061469 -0.1972855,0 -0.035654,-0.093781 0.1282697,-1.336122 0.1917951,-1.4161068 0.051543,-0.064897 0.1195427,-0.1252861 0.1989,-0.149175 1.6633277,-0.5007076 3.3431376,-0.9449385 5.0139593,-1.4200399 1.392801,-0.3960461 2.787434,-0.7858226 4.176904,-1.1934005 1.096859,-0.3217452 2.18646,-0.6677919 3.281851,-0.9945002 0.306712,-0.091479 0.994326,-0.5723305 0.924314,-0.2600184 -0.0988,0.4407131 -0.695268,0.5772271 -1.056269,0.8486441 -0.853254,0.6415148 -1.795805,1.1714649 -2.5857,1.889552 -0.678439,0.616763 -1.171783,1.4114285 -1.790101,2.0884504 -0.461271,0.5050655 -0.986379,0.9493567 -1.446517,1.4554552 -0.144939,0.1594167 -0.229321,0.3658383 -0.363001,0.5348081 -0.02299,0.029066 -0.08938,0.085392 -0.09945,0.049725 -0.05201,-0.184114 -0.0462,-0.3806309 -0.04807,-0.5719408 -0.01416,-1.4463048 0,-2.892748 0,-4.3391222 0,-0.9945002 -0.03662,-1.9896748 0,-2.9835008 0.02468,-0.66978507 0.122594,-1.33486126 0.183689,-2.00231043 0.01909,-0.20854807 0.05447,-0.83508737 0.05686,-0.62568117 0.03258,2.8467676 -0.41802,5.6264446 -1.241541,8.3493502 C 10.683418,8.6231999 10.030137,10.414765 9.38195,12.206152 9.3509035,12.291956 9.2408593,12.49705 9.2035512,12.413778 9.1058192,12.19564 9.1902004,11.93471 9.1544485,11.698368 9.0090687,10.737309 8.8902195,9.7689931 8.6605987,8.8245115 7.6940827,4.8490118 7.8529245,4.4144726 5.2792979,1.6641096 4.5917146,0.92930854 3.7980328,0.29768466 3.0012888,-0.31705311 2.8073209,-0.46671139 2.2342117,-0.83886076 2.3283956,-0.61269599 3.0626886,1.1505691 6.0242293,0.94962886 7.1865817,1.1156792 c 1.9310911,0.2758702 4.9525633,0.514466 6.9615023,0.5967002 0.558406,0.022858 1.117748,0 1.676622,0 0.04313,0 0.110144,-0.038596 0.129406,0 0.288816,0.578716 -0.713711,1.11722 -1.241311,1.4913392 C 13.203728,4.273796 10.131396,5.8192471 8.5652186,6.3674087 7.1764701,6.8534708 5.7251829,7.142178 4.2888675,7.4613592 3.3365633,7.6729822 2.3692231,7.8116823 1.4048166,7.9586094 c -0.1251647,0.019068 -0.325941,0.1145694 -0.379827,0 C 0.51975406,6.8844069 2.6276482,4.7686462 2.6731534,4.7116454 7.8731479,-1.8019675 2.7947323,5.3054186 7.446755,-0.85755466 7.9443217,-1.5167283 8.3786542,-2.2214011 8.8348456,-2.9098573 c 0.035661,-0.053817 0.079792,-0.1090348 0.086615,-0.1732333 0.00307,-0.028899 -0.043789,-0.084577 -0.06165,-0.061651 C 8.5201174,-2.7087057 8.17941,-2.268086 7.9103714,-1.785243 5.4198064,2.6845662 8.1680795,-1.2838535 5.0263205,3.6845086 4.2105516,4.9745616 3.3010848,6.2029273 2.4406199,7.4636081 1.8756329,8.2913796 1.3972086,9.1846809 0.74996939,9.9498588 c -0.47874772,0.5659842 -1.0834253,1.0142662 -1.66216725,1.4775102 -0.0994713,0.07962 -0.25694614,0.217869 -0.35637874,0.138201 -0.1212853,-0.09718 -0.047068,-0.308192 -0.049725,-0.463584 -0.013931,-0.814711 0,-1.6296612 0,-2.4444919 0,-2.1879007 0,-4.3758013 0,-6.563702 0,-0.6757106 -0.043669,-1.35283387 0,-2.02713193 0.011218,-0.17321788 -0.0086,-0.51851376 0.1633059,-0.49447313 1.57005103,0.2195653 3.0717181,0.78615047 4.6117886,1.16225088 6.7510581,1.64867478 6.4528414,1.74162558 13.3263041,2.48625078 1.751698,0.1897671 3.517484,0.2241267 5.270851,0.3978 0.242481,0.024019 0.948191,0.183274 0.704764,0.1940928 C 2.7466038,4.7019874 49.10188,1.0117154 2.3714528,4.8070833 c -1.43453661,0.1165106 -2.85657237,0.3606956 -4.2763512,0.5967 -0.1729181,0.028744 -0.4686922,0.021108 -0.4882605,0.1953037 -0.017455,0.1553851 0.2961748,0.1309857 0.4523841,0.1240637 1.16336302,-0.051551 2.33589143,-0.085353 3.480751,-0.2983503 C 6.4878986,4.5042568 10.218082,3.5885329 14.76683,2.2423997 15.001351,2.1729967 15.419725,1.7430328 15.453997,1.9851947 15.494632,2.2723205 15.061414,2.4233195 14.813793,2.5742376 14.082097,3.0201862 13.291829,3.3621038 12.535128,3.7641643 11.678177,4.2194921 10.866669,4.7682604 9.9729458,5.1463447 9.1424283,5.4976902 8.2461993,5.6673527 7.3872452,5.941945 5.8264448,6.4409047 6.498782,6.4185117 5.7858289,6.4185117 c -0.015856,0 0.032757,0.00566 0.04757,0 C 6.5542778,6.1431082 7.2365739,5.7437533 7.9899181,5.5764644 15.111467,3.9950395 16.248329,4.0118122 22.410175,3.2891121 23.499803,3.1613136 24.588354,3.0244542 25.677907,2.8960177 25.909652,2.8686998 26.254515,3.0222838 26.374015,2.821855 26.480338,2.6435243 25.960928,2.7740623 25.753357,2.7694715 22.173418,2.6902918 18.5928,2.6447692 15.012754,2.5705714 9.3182555,2.4525507 1.4429035,2.19121 -4.0816516,2.2722213 c -0.2914023,0.00427 -0.7204319,-0.00141 -0.8323112,0.2676953 -0.086681,0.2084933 0.3444431,0.3317502 0.5668177,0.3708966 1.2444915,0.2190782 2.5114377,0.285251 3.77049396,0.3926361 C 1.6425187,3.4927225 3.8649341,3.642016 6.0865009,3.8006996 17.330756,4.6038605 14.147097,4.444955 29.656159,4.2979496 c 1.559388,-0.014782 3.116701,-0.1197301 4.67415,-0.1989 0.210883,-0.010721 0.839729,-0.050864 0.629507,-0.070701 C 34.321948,3.9681557 33.679045,3.9852618 33.038393,3.9771378 27.104649,3.9018908 21.17106,3.7782375 15.236838,3.7782375 c -3.315664,0 -6.6370188,-0.026645 -9.9450026,0.1989003 -2.5352306,0.1728568 -5.04709112,0.6051515 -7.5582022,0.9945018 -0.5640983,0.087464 -1.6327665,-0.1360903 -1.6565436,0.4342532 -0.02273,0.5452337 1.0906689,0.052881 1.6363671,0.049725 2.32069858,-0.013422 4.6512845,0.121271 6.9615019,-0.09945 C 7.5828704,5.0783424 10.44306,4.4279688 13.327111,3.963869 17.868662,3.4997689 22.406493,2.9976879 26.951765,2.5715687 c 2.880738,-0.2700693 5.764046,-0.5217008 8.652153,-0.6961502 2.052627,-0.1239843 4.112593,-0.086753 6.1659,-0.1989001 0.363016,-0.019827 1.432581,-0.1440195 1.072827,-0.1964629 -0.798404,-0.1163884 -1.614355,-0.032848 -2.42053,0 -17.82032,0.7261034 -12.306559,0.1568058 -24.862508,1.7901006 -1.492377,0.1941303 -2.998305,0.3077048 -4.475248,0.5966999 -0.137632,0.026931 -0.400334,0.3146526 -0.260938,0.3300355 1.259899,0.1390327 2.534628,0.053723 3.802155,0.060746 12.042929,0.066733 7.050636,7.144e-4 24.564158,-1.1934004 1.491599,-0.1016998 2.98727,-0.1530136 4.475249,-0.29835 0.137099,-0.013391 0.509321,-0.1484349 0.374219,-0.1753153 -1.882158,-0.3744829 -8.9673,-0.4424599 -9.049205,-0.4436556 -2.3534,-0.034356 -4.707559,-0.034865 -7.060951,0 -1.255004,0.018593 -6.907709,0.065782 -9.145908,0.4955035 -0.114204,0.021927 0.183615,0.1644654 0.298867,0.1799726 1.317726,0.1773002 2.640578,0.3450307 3.969266,0.3943051 2.219525,0.082312 4.4423,-0.029611 6.663151,0 2.752006,0.036694 5.502339,0.1629262 8.254352,0.1989003 2.320303,0.030331 4.6414,0.042965 6.961502,0 1.261229,-0.023355 2.521149,-0.105133 3.779102,-0.1989003 0.07232,-0.00539 0.261536,-0.069396 0.194596,-0.097297 -1.52378,-0.6351103 -4.899237,-0.7347848 -5.761334,-0.7554339 -4.04314,-0.096842 -8.090823,-0.1339985 -12.132902,0 -0.8319,0.027578 -1.6461,0.2669981 -2.449825,0.4834304 -0.0582,0.015671 -0.07486,0.1789821 -0.01461,0.1802093 9.501918,0.1934993 7.41711,0.2018498 16.123753,-0.8950503 1.790922,-0.2256279 3.581392,-0.4551018 5.370304,-0.6961502 0.91736,-0.1236107 1.831848,-0.2677142 2.748314,-0.3978002 0.01789,-0.00254 0.07134,-0.00577 0.05422,0 -0.50383,0.1699117 -1.01826,0.3088103 -1.516941,0.493288 -2.401853,0.8885195 -4.754862,1.9061044 -7.1604,2.7846007 -0.869657,0.3175961 -1.759371,0.5774817 -2.635226,0.8775568 -0.05666,0.01941 -0.213789,0.1080569 -0.160698,0.080348 2.175026,-1.1351554 4.053951,-2.7552317 6.238772,-3.8779866 1.28148,-0.65853868 2.647474,-1.13787703 3.978002,-1.6906505 0.551823,-0.22925672 1.108171,-0.44793542 1.668603,-0.65525392 0.03211,-0.0118782 0.129437,-0.0213966 0.102711,0 -1.333656,1.06766986 -2.511358,1.66391394 -4.126957,2.52382972 -1.046949,0.5572461 -2.152655,1.0027743 -3.182401,1.5912004 -0.830209,0.4744045 -1.601988,1.0449655 -2.3868,1.5912004 -0.188889,0.1314672 -0.413335,0.2429439 -0.531863,0.4402079 -0.04159,0.069218 0.157797,0.066984 0.236892,0.050702 0.425273,-0.087542 0.843087,-0.2130266 1.252601,-0.3573137 0.760304,-0.2678837 1.507133,-0.5730391 2.253353,-0.8779648 1.328613,-0.5429072 2.121807,-1.2511973 3.575399,-0.8867481 0.121846,0.030549 -0.06783,0.2644138 -0.171281,0.3356758 C 49.490616,4.0020962 48.669826,4.4942095 47.823463,4.9328739 46.644226,5.544064 44.4819,6.4541518 43.08698,6.911164 42.83707,6.99304 42.574384,7.0291562 42.316878,7.0825216 c -0.01852,0.00384 -0.05421,0.018748 -0.05676,0 -0.04208,-0.3099951 0.153811,-1.8532607 0.538472,-1.9150414 0.769541,-0.1235964 1.554631,-0.1260457 2.333858,-0.1426073 12.697317,-0.2698691 -8.883578,0.762163 15.912005,-0.3978002 0.329385,-0.015409 1.212204,0.037885 0.971338,-0.1873155 -0.28529,-0.2667354 -0.781452,-0.016084 -1.171681,0 -2.022877,0.083381 -4.049771,0.1195311 -6.066454,0.29835 -4.714991,0.4180782 -9.424119,0.9114359 -14.121902,1.4917505 -0.942113,0.1163785 -1.863119,0.3686892 -2.784602,0.5967002 -0.06971,0.017248 -0.240456,0.135165 -0.168654,0.1340517 6.41961,-0.099517 2.388175,-0.1419336 9.026015,-0.9945002 2.048076,-0.2630559 4.113355,-0.3711456 6.1659,-0.5967003 0.964644,-0.1060048 1.923719,-0.2580108 2.884051,-0.3978 0.406172,-0.059124 1.214559,0.2115535 1.215191,-0.1988999 5.3e-4,-0.4075552 -0.807225,-0.1301155 -1.21467,-0.1396151 -1.590768,-0.037088 -3.182593,-0.02486 -4.773599,0 -6.479397,0.1012407 -8.885349,0.1265224 -15.215857,0.7956002 -1.664393,0.1759117 -3.317216,0.4487921 -4.972499,0.6961502 -0.116669,0.017433 -0.456531,0.078647 -0.340125,0.097745 0.510225,0.083707 1.03092,0.091333 1.547887,0.1003999 4.746521,0.083243 4.80252,0.091666 10.044451,-0.8950502 0.877185,-0.165118 1.731554,-0.4370102 2.5857,-0.6961508 C 44.77395,4.6956831 45.083055,4.612178 44.978137,4.5454048 43.73096,3.7516416 40.080842,3.5736463 39.470594,3.5300573 37.12083,3.362217 34.763569,3.3243813 32.409643,3.231707 28.373556,3.072806 27.58114,2.786149 24.283014,3.3294455 c -0.04188,0.0069 0.0105,0.1100746 0.05253,0.1159906 1.11694,0.1572186 2.248956,0.1955467 3.364116,0.3649314 1.43347,0.2177333 2.832277,0.6656334 4.276352,0.7956002 3.04151,0.2737358 7.336229,0.054795 10.442252,-0.09945 0.3282,-0.016298 0.73709,0.1321977 0.981972,-0.086922 C 43.548077,4.2873088 43.142177,4.0756551 42.948674,4.0319084 42.105873,3.8413682 41.235648,3.7926655 40.373482,3.7353094 38.751364,3.627397 37.124565,3.6077998 35.500431,3.5364094 c -1.392534,-0.06121 -2.783096,-0.213188 -4.176903,-0.1989 -0.980117,0.010046 -1.960647,0.113279 -2.927924,0.2717319 -0.09981,0.016351 -0.277765,0.1931101 -0.187433,0.2386049 1.974392,0.9944042 5.147042,0.7111823 6.91665,0.7448889 1.756632,0.033459 3.515175,0.066883 5.270852,0 1.727639,-0.065815 3.455794,-0.1838786 5.171403,-0.3977987 0.57182,-0.0713 1.209476,-0.1056939 1.667795,-0.4549849 0.175133,-0.1334696 -0.272984,-0.411825 -0.49113,-0.4417647 -1.380934,-0.1895263 -2.78325,-0.1737895 -4.176903,-0.1989003 -3.321862,-0.059853 -8.655851,-0.083218 -12.132902,0.2983503 -1.272006,0.1395883 -2.534891,0.3811458 -3.775599,0.6943973 -0.136112,0.034365 -0.400511,0.2844335 -0.266465,0.3261352 0.885249,0.2754006 1.832068,0.2862006 2.745449,0.445076 8.840486,1.537729 2.341698,0.9760019 17.399706,-0.0027 0.734785,-0.047758 2.932208,-0.1121709 2.200455,-0.1941748 -2.233908,-0.2503421 -4.489376,-0.2500037 -6.736349,-0.3141395 -3.656918,-0.1043797 -12.990608,-0.3907552 -17.602656,0 -1.359515,0.1151847 -2.694837,0.4310493 -4.03589,0.6822971 -0.02419,0.00453 -0.02455,0.072142 0,0.073832 0.866343,0.059643 1.734655,0.1047599 2.603048,0.1053742 1.922986,0.00135 3.848491,0.014425 5.768101,-0.09945 1.93311,-0.1146759 9.025123,-0.8647392 11.138403,-1.3923004 0.257866,-0.064374 -0.46981,-0.2802409 -0.733655,-0.3122412 -1.153689,-0.1399241 -2.318835,-0.1758918 -3.48075,-0.1988999 -2.187472,-0.043316 -4.375803,0 -6.563704,0 -2.41995,0 -4.844698,-0.1523069 -7.259851,0 -1.278356,0.080617 -2.541377,0.3664063 -3.779101,0.6961502 -0.186235,0.049615 -0.58763,0.3722415 -0.400234,0.4172725 5.122654,1.2309716 9.645332,1.6236788 14.890451,1.6940831 2.486908,0.033381 4.972714,-0.1250574 7.458752,-0.1989002 0.862155,-0.025609 1.729494,0.00487 2.585699,-0.09945 0.07996,-0.00974 -0.05732,-0.1890273 -0.137266,-0.1988667 C 39.811573,5.1960972 37.16162,4.9434427 34.509723,4.7255326 30.871607,4.4265849 23.225969,4.2189423 20.288364,4.1288319 13.369637,3.9166008 15.195298,3.9299316 11.448799,3.9299316 c -0.279797,0 0.56032,-0.020135 0.839392,0 1.559629,0.1125268 3.111413,0.343444 4.674151,0.3978002 0.440012,0.015306 12.147066,-0.013954 12.928505,0 1.658561,0.029618 3.31457,0.1444035 4.972499,0.1989016 0.359294,0.011811 0.741561,-0.1254143 1.078461,0 0.193206,0.071922 -0.385559,0.1680102 -0.591286,0.181355 -1.754513,0.1138086 -3.515955,0.091143 -5.270852,0.1989 -3.586437,0.2202198 -7.880041,0.5788572 -11.436752,1.2928501 -1.001379,0.201022 -2.339834,0.043769 -2.937333,0.872118 -0.3868,0.536244 1.243096,0.5069703 1.901872,0.5634035 0.884944,0.075808 1.774675,-0.089483 2.658953,-0.1727052 4.047608,-0.3809322 9.964528,-1.059502 13.651787,-1.9789759 0.856131,-0.2134896 -1.768408,-0.0808 -2.64705,0 -3.091397,0.2842856 -6.165402,0.733547 -9.248853,1.0939502 -2.021658,0.2362978 -4.046748,0.4436872 -6.066451,0.6961503 -1.693323,0.2116653 -3.383752,0.446886 -5.071949,0.6961502 -0.09871,0.014573 -0.379944,0.067343 -0.283976,0.094658 0.197663,0.05626 0.411914,0.019055 0.616543,0 3.346282,-0.3116093 6.684482,-0.7096673 10.033384,-0.9917324 2.15121,-0.1811883 4.311907,-0.2306278 6.464252,-0.3978003 1.262856,-0.098086 2.518338,-0.2757045 3.779102,-0.3978 0.109021,-0.010557 0.438128,0 0.328596,0 -2.065443,0 -4.131484,-0.049833 -6.196325,0 -2.057106,0.049646 -4.114143,0.1420257 -6.165902,0.29835 -1.430907,0.1090216 -2.862738,0.2501056 -4.276351,0.4972503 -0.427928,0.074815 -1.141953,0.035663 -1.218105,0.4633555 -0.06578,0.3694155 0.70467,0.2847837 1.077732,0.3250274 1.254167,0.1352925 2.517869,0.1757582 3.779101,0.1989002 4.991972,0.091596 8.333939,0.1089515 13.226852,-0.4972502 1.70375,-0.2110838 3.383357,-0.5852771 5.071952,-0.8950502 0.455223,-0.083511 0.960125,-0.049897 1.358958,-0.284702 0.131058,-0.077157 -0.16491,-0.3077295 -0.3154,-0.3296708 -1.547323,-0.2255981 -3.113113,-0.3068662 -4.67415,-0.3978003 -5.158023,-0.3004672 -5.1391,-0.3320587 -9.845554,0.1989003 -0.802684,0.090555 -1.802299,-0.1913927 -2.397174,0.3550737 -0.493571,0.4534054 1.341004,0.027703 2.010646,0 2.325606,-0.096209 2.476554,0.016875 4.313724,-0.7138077 0.113196,-0.04502 0.182594,-0.1658808 0.291552,-0.2203604"
       style="fill:none;stroke:#000000;stroke-width:0.264583px;stroke-linecap:butt;stroke-linejoin:miter;stroke-opacity:1" />
  </g>
</svg>
