<?xml version="1.0" encoding="UTF-8" standalone="no"?>
<svg
   xmlns:dc="http://purl.org/dc/elements/1.1/"
   xmlns:cc="http://creativecommons.org/ns#"
   xmlns:rdf="http://www.w3.org/1999/02/22-rdf-syntax-ns#"
   xmlns:svg="http://www.w3.org/2000/svg"
   xmlns="http://www.w3.org/2000/svg"
   id="svg8"
   version="1.1"
   viewBox="0 0 52.916666 7.9374997"
   height="30"
   width="200">
  <defs
     id="defs2" />
  <metadata
     id="metadata5">
    <rdf:RDF>
      <cc:Work
         rdf:about="">
        <dc:format>image/svg+xml</dc:format>
        <dc:type
           rdf:resource="http://purl.org/dc/dcmitype/StillImage" />
        <dc:title></dc:title>
      </cc:Work>
    </rdf:RDF>
  </metadata>
  <g
     id="layer1">
    <path
       id="path877"
       d="M 7.0009778,2.6526066 C 6.5587694,2.2937758 6.9605712,2.5504263 6.1694588,2.384139 5.9977742,2.3480519 5.8470926,2.2251337 5.6721631,2.2118071 4.6938826,2.1372791 3.9137518,2.2601428 2.9671332,2.6302147 1.2111905,3.3166843 -0.35548506,4.0108348 -1.940441,4.9831693 -2.5219849,5.3399335 -3.1103662,5.6941801 -3.6378171,6.1269265 -3.9297636,6.3664538 -4.1209848,6.7079748 -4.378906,6.9838061 -4.42205,7.029946 -4.5732665,7.1411435 -4.535538,7.0904792 -3.5159013,5.7212475 -2.697785,5.2966177 -1.0171442,4.7752341 -0.10334036,4.4917457 0.82511962,4.2446249 1.7674566,4.0790825 3.6783303,3.7433951 8.8475438,3.1768023 10.812984,3.0853864 c 1.357682,-0.063148 2.718713,0.033549 4.077448,0 1.327253,-0.032772 2.651388,-0.1462707 3.978001,-0.1989 0.344939,-0.013684 0.703687,0.094781 1.035631,0 0.171865,-0.049074 -0.336513,-0.1444607 -0.515199,-0.1486014 -1.965246,-0.045542 -3.93343,-0.086042 -5.897319,0 -1.068031,0.046792 -2.118831,0.2896404 -3.182401,0.3978 C 9.4162479,3.2264881 8.5070846,3.1743914 7.6239943,3.3345852 6.6781364,3.5061649 5.7785327,3.874108 4.8507837,4.1258392 4.3572337,4.259757 3.8498258,4.3418418 3.3607724,4.4913489 c -0.058436,0.017865 -0.1818145,0.097843 -0.1296236,0.1296236 0.09751,0.059376 0.2283312,0 0.3424967,0 0.5971128,0 1.1943451,0.011938 1.7913387,0 6.1928228,-0.1238256 -0.00527,-0.023442 7.8565518,-0.5967003 9.570834,-0.3906461 0.340128,0.067219 9.248853,-0.5966999 0.717499,-0.053472 1.472142,0.1326536 2.156628,-0.089027 0.390747,-0.1265486 -0.802591,-0.2003877 -1.213,-0.2165802 -1.424342,-0.056197 -2.851217,0.030003 -4.276351,0 -1.724693,-0.036309 -3.446634,-0.1663573 -5.171402,-0.1989003 -16.0698737,-0.3032051 7.392811,0.4491008 -12.4287917,-0.1989 -0.3246153,-0.010612 0.6495775,0 0.9743663,0 1.1852605,0 2.3735312,0.084419 3.5557816,0 1.5564202,-0.111137 3.0865101,-0.497087 4.6443848,-0.5855375 1.886513,-0.1071095 3.781143,0.087791 5.668654,0 2.392487,-0.1112784 4.768317,-0.4770959 7.160402,-0.5967002 2.106936,-0.1053468 4.047083,0.2657582 6.062718,-0.1941624 0.05941,-0.013556 -0.111601,-0.057736 -0.172471,-0.06063 -1.050288,-0.049935 -2.101504,-0.1086787 -3.152919,-0.097474 -3.944427,0.042034 -7.54819,0.1597966 -11.436753,0.6961502 -1.204348,0.1661171 -2.3878,0.4590103 -3.580198,0.6961502 -0.183492,0.036492 -0.719125,0.050852 -0.54723,0.1246981 0.349726,0.1502434 0.754315,0.1150046 1.134737,0.1276964 0.897103,0.02993 1.795204,0 2.692805,0 1.0608,0 2.147822,0.2344004 3.182401,0 0.522568,-0.118396 0.749336,-0.826172 1.254349,-1.0052167 0.950263,-0.336902 1.990524,-0.3226039 2.9835,-0.4972502 0.463534,-0.081527 1.375336,0.1993314 1.385654,-0.2712037 0.01016,-0.4630234 -0.912508,-0.1815306 -1.375389,-0.19684389 -1.524067,-0.0504199 -3.050028,-0.0262874 -4.574701,0 C 11.191665,0.9708399 8.5570329,1.0434513 2.1817123,1.8583419 0.51116565,2.0718704 -1.139713,2.4213256 -2.790789,2.7533922 c -0.4578834,0.09209 -1.3084828,-0.08877 -1.3496348,0.3764656 -0.039203,0.4432017 0.8399039,0.3388857 1.2841065,0.3643487 1.6878797,0.096754 3.38176519,0.039614 5.0719515,0 C 7.338611,3.3741368 13.346716,3.020532 18.425989,2.6986063 c 2.157825,-0.1367635 6.712187,-0.431255 9.171947,-0.7708424 0.775906,-0.1071196 -1.559977,0.1447265 -2.341368,0.1989 -2.087644,0.1447356 -4.176901,0.2652001 -6.265352,0.3978002 -2.08845,0.1989001 -4.173326,0.4397981 -6.265352,0.5967 -1.886866,0.1415151 -3.7808758,0.1695244 -5.6686511,0.2983503 -1.019879,0.069599 -2.0368429,0.1796338 -3.0523584,0.29679 -0.029301,0.00338 -0.091899,0.059455 -0.062569,0.062568 0.3718769,0.039461 0.7468307,0.048045 1.1207917,0.049725 9.7471838,0.0438 7.9138318,0.1983298 15.8125548,-0.3978003 1.559248,-0.117679 3.115883,-0.2677768 4.674151,-0.3977999 0.818463,-0.068293 1.680059,0.071972 2.456021,-0.1971474 0.498338,-0.1728327 -1.051348,-0.098743 -1.578738,-0.1071118 -1.723583,-0.02735 -3.448719,-0.062079 -5.171401,0 -1.959069,0.070597 -3.915561,0.2170602 -5.867552,0.3978 -1.629511,0.1508807 -3.25798,0.3328296 -4.873048,0.5967002 C 9.992231,3.8086588 9.4133354,3.8528 8.990382,4.1718023 8.8214336,4.2992278 9.3566294,4.4106173 9.5663625,4.438774 c 1.4515915,0.1948747 2.9119335,0.3509563 4.3757985,0.3978 9.196507,0.2942884 6.922822,-0.1622084 16.110904,-0.3978 2.485435,-0.063729 4.972802,0.038542 7.458753,0 1.791112,-0.027769 3.580066,-0.1363406 5.3703,-0.1989002 0.107112,-0.00374 0.428702,0 0.321527,0 -4.734576,0 0.09136,-0.038975 -8.882369,0.3978002 -5.20356,0.2532706 -10.413108,0.3870825 -15.613654,0.6961502 -1.495613,0.088884 -2.977573,0.3364019 -4.467166,0.49725 -0.04567,0.00493 -0.183725,0 -0.137794,0 2.71787,0 5.43574,0 8.15361,0 2.0553,0 4.111723,0.067907 6.165902,0 1.959268,-0.064769 3.913454,-0.2414722 5.86755,-0.3978 C 35.650979,5.3243739 37.032665,5.325216 38.367176,5.035474 38.615921,4.981468 37.935672,4.7263512 37.682881,4.6965708 35.834531,4.4788235 33.974246,4.3445988 32.11368,4.2987721 27.241992,4.1787802 22.365929,4.0683706 17.494525,4.1993222 c -1.307589,0.03515 -2.58694,0.3899024 -3.878551,0.5966986 -0.05683,0.0091 -0.222296,0.044934 -0.165036,0.050708 4.014856,0.4048358 4.51896,0.2340422 9.552678,0.2340422 1.650006,0 3.307402,0.1559872 4.950018,0 0.163393,-0.015515 8.435009,-1.6921975 8.724762,-1.7766784 0.392237,-0.1143616 -0.818737,-0.036127 -1.225706,0 -1.462236,0.1298041 -2.939113,0.1957234 -4.375801,0.49725 -1.261951,0.264854 -2.452963,0.7960217 -3.67965,1.1933989 -1.126964,0.3650726 -2.264843,0.6979131 -3.381301,1.0939504 -0.261765,0.092854 -0.50806,0.2277407 -0.746446,0.3702698 -0.03788,0.022648 -0.10928,0.1199179 -0.0654,0.1151287 2.133157,-0.2328391 2.127865,-0.6341189 4.655875,-1.6611232 1.903667,-0.7733651 4.69677,-1.7630505 6.66315,-2.2873522 0.443122,-0.1181501 0.906981,-0.1368755 1.361599,-0.1971777 0.04128,-0.00548 0.162753,-0.017412 0.124926,0 -1.635093,0.7526323 -3.434789,1.4107471 -5.127824,1.9398203 -3.075143,0.9609817 -5.41099,1.5791106 -8.552703,2.0884491 -0.388268,0.062946 -1.203831,0.433084 -1.179318,0.040511 0.03445,-0.5517229 0.757142,-0.8357299 1.245183,-1.0953464 0.831975,-0.4425746 1.731725,-0.7776075 2.652525,-0.9780646 3.154881,-0.6868136 9.214955,-1.770802 13.127405,-1.9890004 1.049975,-0.058558 2.103215,0 3.154823,0 0.17033,0 -0.341294,-0.014712 -0.510985,0 -1.360501,0.1179502 -2.719282,0.2555155 -4.077451,0.3978 -3.996944,0.4187274 -9.411859,0.9789321 -13.326305,1.6906491 -1.344763,0.2445022 -2.681751,0.5610193 -3.978001,0.9945002 -0.230185,0.076977 -0.734435,0.3959632 -0.520012,0.5096875 0.578819,0.3069902 1.295484,0.2827967 1.949782,0.248625 4.118334,-0.2150856 8.231091,-0.5573681 12.331805,-0.9945002 2.433481,-0.259407 4.853619,-0.6476513 7.259851,-1.0939518 2.760835,-0.5120714 5.490729,-1.1788799 8.233611,-1.77973 0.07181,-0.01573 0.282401,-0.062787 0.20922,-0.069739 -6.492923,-0.6168089 -15.60797,0.448927 -21.343819,0.9887717 -0.971243,0.091411 -3.665654,-0.086501 -2.884052,0.4972502 0.956648,0.7144861 2.38988,0.091947 3.581957,0.02399 2.160402,-0.1231596 4.316119,-0.3358557 6.46425,-0.5967002 2.494526,-0.3029067 4.958736,-0.8403254 7.458752,-1.0939504 1.113192,-0.1129323 9.573183,-0.4660868 11.237854,-0.3978001 0.143039,0.00587 -0.174937,0.2682956 -0.316373,0.2904501 -1.34915,0.2113317 -2.716678,0.2830361 -4.077451,0.3978001 -4.142282,0.3493493 -8.295891,0.5709995 -12.431252,0.9945003 -1.371645,0.1404694 -2.738871,0.3654859 -4.077451,0.6961502 -0.107461,0.026545 -0.171927,0.3173013 -0.0616,0.3263038 1.349007,0.1100775 2.707677,0.043253 4.060478,0 5.588302,-0.178675 4.929461,-0.2790204 10.442245,-0.9945008 2.201458,-0.2857177 5.425511,-0.4917416 7.539805,-1.3886568 0.294711,-0.1250212 -0.614937,-0.2068095 -0.934784,-0.2203331 -1.424178,-0.060216 -2.850901,0 -4.276352,0 -6.067652,0 -11.686156,-0.2097659 -17.602655,1.4917504 -0.396853,0.1141304 -1.151498,0.2948554 -1.029329,0.6893078 0.15367,0.4961522 0.916514,0.554549 1.432636,0.612851 1.614419,0.1823675 3.248409,0.086953 4.873051,0.09945 8.947997,0.068831 7.197757,0.1947497 16.110905,-0.7955987 1.495745,-0.166194 2.982122,-0.4084177 4.47525,-0.5967002 0.320016,-0.040354 1.280538,-0.029551 0.963538,-0.089128 -0.566253,-0.1064218 -1.151485,-0.057802 -1.727641,-0.054478 -2.022388,0.011671 -4.049168,-0.044641 -6.066452,0.09945 -2.629093,0.1877923 -5.234196,0.6292704 -7.856553,0.8950502 -2.284278,0.2315149 -4.583144,0.3172127 -6.862051,0.5967016 -1.239025,0.151956 -2.463001,0.4167992 -3.67965,0.6961502 -0.04832,0.011094 -0.04873,0.139609 0,0.1487228 2.312334,0.4324744 5.405289,0.3103348 7.49599,0.2488436 1.593617,-0.046871 3.185996,-0.1523633 4.773602,-0.29835 1.297955,-0.1193523 2.584733,-0.3392408 3.87855,-0.4972503 0.606338,-0.074049 1.216213,-0.1182052 1.821702,-0.1989 0.02365,-0.00315 0.07372,-0.044601 0.05063,-0.050629 -1.769946,-0.4620403 -2.232951,-0.2298084 -4.60566,-0.2298084 -4.887108,0 -4.975767,-0.15138 -10.541701,0.6961503 -0.944002,0.1437436 -2.187014,-0.053265 -2.778768,0.6961502 -0.378997,0.4799732 1.107321,0.5868262 1.715585,0.6502948 1.813705,0.1892487 3.646262,0.1146458 5.469752,0.09945 5.50145,-0.045846 5.875417,-0.022101 10.641153,-0.7956003 1.063262,-0.1725718 2.123609,-0.3667768 3.17596,-0.5967002 0.04106,-0.00897 0.102632,-0.1070335 0.06075,-0.1104731 C 48.533162,4.8625411 43.47713,4.9702895 38.56436,5.5958029 c -1.340196,0.170639 -2.662981,0.4697298 -3.974536,0.7938703 -0.207624,0.051313 -0.590765,0.1145744 -0.553149,0.3251126 0.04417,0.2472082 0.422844,0.3095548 0.67206,0.340442 1.219013,0.1510821 2.451619,0.171304 3.679651,0.1989 1.723366,0.038727 3.4476,0 5.1714,0 1.524902,0 3.050246,0.036767 4.574701,0 1.225505,-0.029557 2.452743,-0.073763 3.672197,-0.1989 0.208989,-0.021444 0.520827,-0.037356 0.583663,-0.2378236 0.04844,-0.154531 -0.304665,-0.1178396 -0.464963,-0.140862 -1.322747,-0.1899772 -2.643785,-0.4222944 -3.978002,-0.4972503 -1.621793,-0.091112 -3.2487,0 -4.873051,0 -6.368616,0 -3.578757,-0.083988 -9.248854,0.1989 -0.441243,0.022013 -0.883669,0.02899 -1.323501,0.07056 -0.0231,0.0022 0.02532,0.049235 0.04853,0.049941 0.530929,0.016147 1.062347,0 1.593519,0 2.154751,0 4.310248,-0.056685 6.464252,0 1.360297,0.035797 2.719041,0.1188834 4.077452,0.1989 0.892863,0.052594 1.785426,0.1145198 2.675845,0.1989 0.438404,0.041545 1.622104,-0.1309034 1.30896,0.1787175 -0.353108,0.3491363 -0.994318,0.034177 -1.48971,0 C 45.752609,6.976678 44.331855,6.7872091 42.904468,6.6774099 40.022081,6.455688 37.134609,6.3036494 34.252315,6.0807097 24.708571,5.3425195 25.373327,5.1273048 15.953511,4.8873095 c -2.220329,-0.056569 -4.442099,0 -6.6631492,0 -0.1177001,0 -0.2354006,0 -0.353101,0 -0.019407,0 0.038823,-6.086e-4 0.05822,0 1.0609042,0.032555 2.1219172,0.061902 3.1826562,0.09945 2.68531,0.095053 5.370762,0.1871499 8.055452,0.29835 2.917711,0.1208522 5.832892,0.3041518 8.751602,0.3978003 3.280833,0.1052674 6.565149,0.081041 9.845553,0.1989 2.256642,0.081077 4.506667,0.4965832 6.762602,0.3978002 C 46.058708,6.259232 47.225275,5.6539625 46.775195,5.533938 45.008858,5.0629016 43.132742,5.1891031 41.305445,5.136138 33.981167,4.9238403 26.653082,4.8740066 19.326988,4.738338 6.2927081,4.4969626 12.88533,4.539438 2.5199359,4.539438 c -0.019208,0 0.038417,0 0.057625,0 1.2879965,0 2.5759929,0 3.8639894,0 1.8564005,0 3.7134977,0.050841 5.5692017,0 2.985326,-0.08179 5.965592,-0.3020277 8.950502,-0.3978002 3.214581,-0.1031415 6.430701,-0.1563045 9.646653,-0.1989 1.789943,-0.023707 3.580202,0 5.370301,0 0.282284,0 1.129133,0 0.846849,0 -3.773112,0 0.48191,-0.042003 -7.714776,0.5967002 C 24.859002,4.8707063 12.802673,5.5514538 9.1208282,5.9317384 5.7258867,6.2823896 2.347296,6.7862772 -1.0230745,7.3240388 c -0.5787191,0.092338 -1.2485842,0.1063535 -1.6868872,0.4953683 -0.2342499,0.207908 0.6084407,0.1722583 0.9214272,0.1840135 1.32506616,0.049767 2.65470812,0.084691 3.9780012,0 2.8244247,-0.1807631 5.6332916,-0.5550347 8.4532523,-0.7956002 4.174872,-0.3561501 8.35642,-0.6315192 12.530703,-0.9945003 1.163413,-0.1011663 2.322967,-0.2451637 3.48075,-0.3977999 0.0613,-0.00808 0.227748,-0.083602 0.165918,-0.082958 -2.167407,0.022574 -4.333467,0.1256477 -6.500866,0.1489382 -2.452959,0.02636 -4.906202,0 -7.359302,0 -4.4421014,0.0663 -8.8841158,0.1387006 -13.32630406,0.1989 -0.45021629,0.0061 -1.12244114,0.3880678 -1.35077284,0 C -1.9242876,5.7283622 -0.9226343,5.8875519 -0.51988801,5.8195051 0.76989304,5.6015873 2.0551206,5.3314335 3.3586631,5.2228048 6.0377995,4.9995433 8.7431104,5.1305359 11.414115,4.8250046 c 0.791128,-0.090495 1.483807,-0.5926542 2.25729,-0.7818546 0.304057,-0.074375 0.626042,0 0.939063,0 0.08264,0 0.329805,0.011269 0.247933,0 C 10.638072,3.4622216 8.0341892,3.7067479 2.7232427,3.6453497 c -2.25404999,-0.026059 -4.5087671,-0.040609 -6.762602,0 -1.4267598,0.025707 -2.8530362,0.096531 -4.2763511,0.1989 -0.4134025,0.029733 -0.8300807,0.080025 -1.2277108,0.1969683 -0.067119,0.019741 0.1079174,0.105441 0.1775825,0.1118769 1.0485128,0.096863 2.1001185,0.1734363 3.1528585,0.1957938 2.0216948,0.042935 4.0443011,0 6.06645166,0 7.65765214,0 15.31530454,0 22.97295654,0 1.1934,0 2.386801,0 3.580201,0 0.135654,0 0.542485,0.00591 0.40696,0 C 19.885803,4.0467637 12.98142,3.4970127 6.0555562,3.130741 2.4765218,2.9414652 -1.1016999,2.7037527 -4.6850469,2.6334909 -7.8670088,2.5710995 -11.05501,2.5487532 -14.23225,2.732941 c -1.409139,0.081689 -3.093276,-0.2083417 -4.176901,0.6961502 -0.816683,0.6816784 2.128708,0.039817 3.188788,0.128619 1.827666,0.1531022 3.638357,0.4977061 5.4697503,0.5967003 3.0791686,0.1664417 6.1671336,0.089397 9.24885259,0.1988999 C 2.9476462,4.4758787 6.3947156,4.660157 9.8410428,4.8505623 20.037522,5.4139044 14.334273,5.3478122 20.55858,5.3478122 c 0.833471,0 -1.666941,0 -2.500412,0 -2.486251,0 -4.972501,0 -7.458752,0 -3.8122511,0 -7.624654,0.034037 -11.43675318,0 C -4.4511523,5.315546 -8.0636781,5.1066467 -11.67739,5.1489123 c -2.059433,0.024088 -4.116807,0.190297 -6.1659,0.3978002 -0.575995,0.058328 -1.209511,0.075812 -1.690651,0.3978 -0.249852,0.1672055 0.590874,0.1305689 0.891443,0.1370443 1.822828,0.039271 3.647449,0.058784 5.469752,0 5.3308205,-0.1719619 19.1569603,-0.7371437 26.652607,-1.1934004 1.327268,-0.08079 2.653438,-0.1813065 3.978001,-0.29835 0.161251,-0.014248 0.637886,-0.087227 0.476206,-0.095241 -0.798295,-0.039566 -1.599114,-0.030041 -2.397824,0 C 10.16473,4.6965991 4.7921761,4.8889663 -0.57466018,5.1907162 -3.4634688,5.3531391 -6.3507569,5.5707975 -9.2268126,5.8868661 -10.26231,6.0006639 -13.221775,6.0022342 -12.295438,6.4787893 c 1.512612,0.7781652 3.3826702,0.4396907 5.0837023,0.444736 3.5826401,0.010626 7.16037641,-0.265897 10.7406032,-0.3978 C 13.92449,6.1427285 10.404276,6.3909916 21.827673,5.4317749 c 0.963091,-0.08087 1.925413,-0.1754725 2.88405,-0.29835 0.0962,-0.01233 0.367875,-0.1088621 0.270932,-0.1060543 -1.160236,0.033605 -2.318064,0.1258112 -3.476483,0.1989003 -4.190679,0.2644047 -8.39027,0.4193606 -12.570735,0.8135762 -1.0979475,0.103536 -9.09189282,1.2379783 -11.51179,1.7778939 -0.094249,0.021029 0.1685633,0.1143881 0.2650989,0.1168252 1.45362422,0.036699 2.91096346,0.090012 4.3622622,0 C 4.3456902,7.7922463 6.6274314,7.4868539 8.9130602,7.238416 12.60602,6.8370073 17.890277,6.219482 21.642667,5.6472155 22.689843,5.4875136 23.887899,5.6609844 24.767907,5.0713504 25.326651,4.6969727 23.42982,4.9169798 22.757455,4.900269 c -1.623849,-0.040359 -3.249283,-0.043494 -4.873051,0 -5.48792,0.146998 -6.902591,0.3680672 -12.3318008,0.7956002 -0.9241481,0.072774 -1.8527847,0.09458 -2.7739054,0.1989 -0.039015,0.00442 0.00103,0.1097815 0.040274,0.1106948 1.5722486,0.036576 3.1455611,0.025897 4.7180219,0 2.4536637,-0.040409 4.9070513,-0.1063625 7.3593023,-0.1989002 2.818863,-0.1063721 5.634888,-0.2789534 8.453252,-0.3978 2.684606,-0.1132062 5.370586,-0.1914898 8.055453,-0.29835 3.978302,-0.1583404 7.955542,-0.3429376 11.934002,-0.4972502 0.295111,-0.011446 1.181333,0 0.886,0 -2.742004,0 -5.484011,0 -8.226017,0 -1.856402,0 -3.713507,-0.051192 -5.569202,0 -11.950806,0.5371147 -5.508992,0.3070005 -16.863808,0.5967002 -0.07226,0.00185 0.14538,-0.010843 0.216842,0 0.975741,0.1480603 1.936668,0.4235108 2.922165,0.4763177 1.986151,0.1064263 3.978095,0.019405 5.967001,0 7.092577,-0.069196 14.157428,-0.1989 21.244144,-0.1989 0.01633,0 -0.03265,0 -0.04898,0 -1.031539,0 -2.063202,0.015854 -3.094622,0 -3.282133,-0.050449 -6.566342,-0.05152 -9.845554,-0.1989 C 0.32380671,3.9129583 51.046514,5.4217244 12.727619,4.4927813 10.704977,4.4437474 8.683677,4.3481929 6.66117,4.2938813 c -0.4466285,-0.011993 -1.786201,0.029236 -1.3403688,0 7.8366108,-0.5138899 6.7697768,-0.3733231 14.9893968,-0.3733231 7.531718,0 15.063437,0 22.595156,0 0.264364,0 -0.528725,0 -0.793086,0 -1.790102,0 -3.580201,0 -5.370303,0 -2.5194,0 -5.038799,0 -7.558201,0 -10.056268,0 -8.32003,0.1890382 -18.553318,-0.5967002 -0.08426,-0.00647 0.143319,-0.096401 0.225601,-0.1156706 1.070979,-0.2508048 2.138464,-0.5301252 3.226336,-0.6927144 2.013062,-0.3008648 4.046084,-0.449055 6.066451,-0.6961502 11.006967,-1.34617587 4.207879,-0.84287985 14.022455,-1.1934004 1.624666,-0.0580238 3.24829,-0.1435658 4.873051,-0.19890004 0.322207,-0.0109733 1.289582,0 0.967184,0 -4.343011,0 1.186463,-0.0994353 -6.132922,0.69615024 -1.617864,0.1758546 -3.247433,0.2223866 -4.873051,0.2983501 -3.253802,0.1520467 -6.325818,0.1989 -9.556284,0.1989 -0.05435,0 0.109175,0.00723 0.163038,0 0.927561,-0.1244454 1.845227,-0.3439577 2.779715,-0.3948122 1.489546,-0.08106 2.983501,0 4.47525,0 2.491373,0 6.890187,-0.063482 9.348304,0.1989001 0.870344,0.092902 1.707721,0.3850505 2.560121,0.5839108 0.654391,0.1526657 -0.230878,0.1170395 -0.878102,0.2219218 -5.634175,0.9130152 -1.505698,0.3440588 -7.250395,0.9913486 -1.581809,0.1782318 -2.703883,0.143719 -4.052983,0.5849532 -0.03151,0.010306 0.06689,0.00624 0.09945,0 0.83307,-0.1596273 1.671291,-0.2973255 2.495616,-0.4972502 1.500383,-0.3638891 2.983503,-0.7956002 4.475253,-1.1934003 6.368465,-1.69825748 3.843067,-1.0799403 11.824932,-2.88405083 0.04233,-0.009569 0.170733,-0.0155358 0.130207,0 C 42.303435,0.50321924 38.67309,1.0272729 35.25231,1.8981592 c -2.279226,0.5802616 -4.539615,1.2321952 -6.807253,1.85621 -0.0199,0.00547 0.04128,0.00108 0.06188,0 0.992838,-0.05217 1.99141,-0.039662 2.978338,-0.1597507 1.633804,-0.1988002 3.256915,-0.4842343 4.873051,-0.7956002 2.936573,-0.5657617 5.084701,-1.2108289 7.821321,-1.6137881 0.514503,-0.075759 1.032592,-0.1250449 1.549702,-0.1802942 0.04566,-0.00488 0.180922,-0.0157064 0.137768,0 -0.173448,0.063129 -0.360609,0.08272 -0.534569,0.1444223 -0.787911,0.2794699 -1.561071,0.5994502 -2.349159,0.8784262 -0.384889,0.1362467 -0.7791,0.2445643 -1.168649,0.3668464 -0.858771,0.2970986 -1.722064,0.5814397 -2.576316,0.8912959 -0.110228,0.039983 -0.262451,0.052308 -0.31463,0.1573149 -0.03157,0.063536 0.109329,0.1186098 0.180089,0.1134475 0.788958,-0.05756 1.578806,-0.1423958 2.354334,-0.2983503 0.286033,-0.05752 6.398315,-1.6214359 6.862051,-1.6906504 0.168828,-0.025198 3.780578,-0.282462 4.787812,-0.1989001 0.05488,0.00455 -0.0727,0.0947 -0.126553,0.1061877 -0.734954,0.1567719 -1.484209,0.2401503 -2.219719,0.3942917 -0.9995,0.209466 -1.988595,0.4658468 -2.983502,0.6961502 -0.721027,0.1669052 -1.442157,0.3334075 -2.164287,0.4954733 -0.130521,0.029292 -0.259953,0.071527 -0.393533,0.078571 -0.02873,0.00151 0.04109,-0.0403 0.06104,-0.061038 0.453425,-0.4713915 0.893168,-0.956265 1.359062,-1.4153373 2.122101,-2.09103703 1.656813,-1.71381174 5.19811,-2.987252 0.134056,-0.048207 0.393885,-0.085607 0.424002,0.053634 0.23639,1.09292739 -1.0493,2.3914741 -1.547309,2.9547354 -0.504619,0.5707385 -4.010126,3.9825371 -4.601184,4.4894975 -0.180501,0.1548199 0.291632,-0.3765563 0.419306,-0.5771793 0.356235,-0.5597765 0.646849,-1.1617864 1.031442,-1.7024733 0.484722,-0.681454 1.022019,-1.3251678 1.570908,-1.9560832 0.378475,-0.4350323 0.785923,-0.8453611 1.208061,-1.23816614 0.07228,-0.0672537 0.178845,-0.18082527 0.264911,-0.13245386 0.09083,0.0510535 0.06244,0.20546671 0.04879,0.30876915 -0.04639,0.35110995 -0.07012,0.72036655 -0.226753,1.03800665 -0.22692,0.4601595 -0.576064,0.8508461 -0.900641,1.2481968 -0.244878,0.2997787 -0.552196,0.5439473 -0.803662,0.8382203 -0.135739,0.1588461 -0.223813,0.3539194 -0.354425,0.5170078 -0.02318,0.028929 -0.08258,0.082724 -0.09945,0.049725 -0.05184,-0.1013884 -0.04227,-0.2244958 -0.04806,-0.3382219 -0.05104,-1.0027036 0.391363,-1.8486118 0.932804,-2.6716634 0.07457,-0.1133509 0.154755,-0.2623636 0.288073,-0.2875623 0.274675,-0.051917 0.603681,-0.081363 0.835231,0.075245 0.389396,0.263366 0.83102,2.3005354 0.94338,2.7517138 0.107985,0.4336052 0.238525,0.8627482 0.315127,1.3029826 0.02903,0.1668407 -0.01484,0.3393475 0,0.5080426 0.0021,0.023029 0.04515,0.07183 0.04904,0.049042 C 51.784339,4.809219 51.543063,2.2674618 50.973645,1.3007656 50.846741,1.085319 50.528452,0.67279252 50.365128,0.86212533 50.008268,1.2758073 50.017936,1.9099032 49.978143,2.4547856 c -0.03978,0.5446424 -0.07297,1.1334485 0.151542,1.6312544 0.144574,0.3205591 0.514599,0.5443852 0.859838,0.6112409 2.604106,0.5042845 2.505551,0.1775945 4.548164,-0.8695824 0.0071,-0.00363 0.465912,-0.2189681 0.562623,-0.3104473 0.01146,-0.010845 -0.03322,-0.00705 -0.04734,0 -0.200133,0.099839 -0.376615,0.2534475 -0.590666,0.3182808 -0.845966,0.2562309 -1.698995,0.5103701 -2.573348,0.6400562 -0.86347,0.128072 -7.433225,0.3952816 -7.558204,0.3977999 -1.797907,0.036231 -3.596545,0 -5.394817,0 -0.01648,0 -0.06593,0 -0.04944,0 2.852716,0 -4.455081,0.033664 3.395316,-0.3977999 2.715011,-0.1492192 5.43892,-0.068534 8.154902,-0.1989016 1.188924,-0.057068 6.184879,-0.469201 7.591629,-1.0562513 0.370514,-0.1546194 -0.780844,-0.2139527 -1.181928,-0.231816 -0.597027,-0.02659 -1.208535,-0.038138 -1.7901,0.09945 -1.110099,0.2626299 -3.217756,1.3157625 -3.953946,2.1675648 -0.536361,0.6205926 -0.78205,1.4440349 -1.114735,2.1937945 -0.04305,0.097024 0,0.2122945 0,0.3184416 0,0.016576 -0.01624,0.046429 0,0.049725 0.0191,0.00388 0.03721,-0.022294 0.04134,-0.041336 0.133546,-0.6156764 0.276125,-1.2304664 0.369668,-1.8534766 0.161917,-1.078394 0.212439,-2.1724789 0.396208,-3.2473645 0.109107,-0.6381743 0.338429,-1.2502688 0.480722,-1.88187215 0.04766,-0.21156679 0.05127,-0.43091055 0.08846,-0.64456626 0.009,-0.05163804 0.03022,-0.19782354 0.04973,-0.14917504582 0.04926,0.12286149582 0.03152,0.26286570582 0.0485,0.39414559582 0.473347,3.65938516 -0.06083,-0.96408175 0.175556,2.66622616 0.05032,0.7728132 0.352211,1.8926756 0.174128,2.6821187 -0.130191,0.5771407 -1.55837,0.6215293 -2.131698,0.5856195 C 48.345283,6.1816672 45.122703,5.3171701 42.923145,4.9356144 41.140136,4.6263165 39.349172,4.3591096 37.552844,4.1400142 30.928273,3.3320241 32.397456,3.3475763 29.450289,3.3475763 c -0.0926,0 0.185825,0.010782 0.277791,0 0.747109,-0.087586 1.49247,-0.1898462 2.237327,-0.2948554 1.12807,-0.1590331 2.248435,-0.3770974 3.381301,-0.49725 1.056945,-0.1120999 2.122157,-0.124235 3.182403,-0.1989001 4.516472,-0.3180615 3.136358,-0.3337154 7.558202,-0.3978001 1.060688,-0.015372 2.121601,0 3.1824,0 0.126828,0 0.507309,0 0.380484,0 -1.994159,0 1.168037,-0.00861 -4.38282,0.1989001 -2.253599,0.084247 -4.507643,0.1675812 -6.762602,0.1989 -20.255874,0.2813316 5.444575,-0.4202128 -15.414753,0.3978001 -2.452112,0.096161 -4.908221,0.079335 -7.359303,0.1989 -1.627818,0.079406 -3.247477,0.281146 -4.873051,0.3978003 -0.222856,0.015991 -0.449662,-0.03529 -0.670286,0 -0.05123,0.00819 -0.147766,0.1199607 -0.09595,0.1225613 1.744909,0.087569 6.500443,-0.1378834 7.510608,-0.1989002 C 20.886099,3.0763665 24.17,2.8645466 27.447592,2.5785822 29.110668,2.4334818 30.761906,2.1749574 32.420095,1.981882 32.975542,1.917207 33.588629,2.056248 34.088382,1.8053452 34.452589,1.6224941 33.273535,1.7334942 32.866722,1.7576522 28.644242,2.0083927 27.703024,2.207817 23.518418,2.8516025 21.196756,3.2087813 18.887404,3.6514136 16.556916,3.9455527 14.953465,4.1479301 12.419731,4.1813877 10.733323,4.144453 10.03174,4.129089 10.269453,4.068912 10.231812,3.2673166 c -0.0052,-0.1107239 0,-0.2216917 0,-0.3325376 0,-0.0663 -0.03762,-0.1443077 0,-0.1989 0.05729,-0.083129 0.557039,-0.049725 0.631463,-0.049725 0.06291,0 0.12582,0 0.18873,0 0.03315,0 0.102735,-0.032987 0.09945,0 C 11.084633,3.3570931 8.7858998,5.1399527 8.7726196,5.1511734 7.4278135,6.2874326 6.0804252,7.4211676 4.7073356,8.523081 4.4951858,8.6933327 4.2301286,9.1383031 4.020934,8.964433 3.7207436,8.714933 3.8647994,8.1965085 3.8453546,7.8066542 c -0.039229,-0.7865049 0,-1.5749654 0,-2.3624479 0,-0.9945005 0,-1.9890007 0,-2.983501 0,-0.7450856 0.046681,-1.49163493 0,-2.23525681 -0.028524,-0.45439125 -0.1356936,-0.90075273 -0.2248887,-1.34721589 -0.010763,-0.053879 -0.030479,-0.1813357 -0.073713,-0.1474299 -0.053833,0.042218 0,0.1368257 0,0.2052386 0,0.41256729 -0.069162,0.83097291 0,1.23770186 0.1835748,1.07957604 0.4990976,3.32004474 1.3068265,4.53806604 0.00127,0.0019 0.4133464,0.4181113 0.5435122,0.378786 0.030515,-0.00922 0,-0.063755 0,-0.095632 0,-0.2108562 -0.038568,-0.4252698 0,-0.632569 C 5.4661098,3.9914226 5.5384421,3.6089878 5.7168136,3.2764714 6.066528,2.6245411 7.0548121,1.8443971 7.7531173,1.7283858 9.3241946,1.4673786 10.931053,1.5092061 12.521938,1.435095 c 0.508459,-0.023686 1.019886,-0.043546 1.527029,0 0.08563,0.00735 0.272758,0.090146 0.210294,0.1491751 C 13.138641,2.6432657 11.307747,2.333662 10.000613,2.5572509 8.5651233,2.8027952 7.1548788,3.1798027 5.7242614,3.452301 0.5481916,4.4382192 2.8218905,3.7631748 -2.1322908,5.0435015 -2.6892371,5.1874353 -3.2558513,5.3179223 -3.781611,5.5513377 c -0.1539861,0.068363 0.3400994,0.032378 0.5054386,0 C -2.4221439,5.3840961 -1.5792488,5.1638752 -0.73452743,4.9546374 0.42832546,4.6665985 1.5806498,4.3364123 2.7462236,4.0595888 4.2330068,3.706478 5.7327334,3.4098499 7.2214747,3.0650886 12.195732,1.913155 11.390886,1.9029243 15.873624,1.274988 16.773619,1.1489179 17.675087,0.99891619 18.583595,0.97663795 18.78663,0.97165929 18.21498,1.1478491 18.025985,1.2222083 17.354148,1.4865404 16.686767,1.7646792 16.001682,1.9924832 14.822471,2.3845934 13.624421,2.7175933 12.436043,3.0809721 11.595224,3.3380751 10.763182,3.6256248 9.9140916,3.8539285 9.5714012,3.9460709 9.2089054,3.9493518 8.8660482,4.0408722 8.805121,4.0571361 8.7777152,4.1313827 8.7282331,4.1704746 8.6730265,4.2140891 8.5902606,4.1992195 8.5231054,4.2201996 8.3213508,4.2832303 8.1264098,4.3711195 7.919622,4.4148994 7.5434313,4.4945437 7.1626396,4.5590777 6.7793065,4.5893844 6.3568045,4.622788 5.8712385,4.4193938 5.5088178,4.6391094 c -0.077649,0.047074 0.1776066,0.046511 0.26841,0.046511 0.1219787,0 0.2447893,0.014224 0.365936,0 C 6.707148,4.6194044 7.2564042,4.4554374 7.8195711,4.382595 9.1671837,4.208289 8.2339912,4.438486 8.9435828,4.2481562"
       style="fill:none;stroke:#000000;stroke-width:0.264583px;stroke-linecap:butt;stroke-linejoin:miter;stroke-opacity:1" />
  </g>
</svg>
