<?xml version="1.0" encoding="UTF-8" standalone="no"?>
<svg
   xmlns:dc="http://purl.org/dc/elements/1.1/"
   xmlns:cc="http://creativecommons.org/ns#"
   xmlns:rdf="http://www.w3.org/1999/02/22-rdf-syntax-ns#"
   xmlns:svg="http://www.w3.org/2000/svg"
   xmlns="http://www.w3.org/2000/svg"
   xmlns:sodipodi="http://sodipodi.sourceforge.net/DTD/sodipodi-0.dtd"
   xmlns:inkscape="http://www.inkscape.org/namespaces/inkscape"
   sodipodi:docname="scribble1.svg"
   inkscape:version="1.0 (4035a4fb49, 2020-05-01)"
   id="svg8"
   version="1.1"
   viewBox="0 0 52.916666 21.166666"
   height="80"
   width="200">
  <defs
     id="defs2" />
  <sodipodi:namedview
     inkscape:window-maximized="1"
     inkscape:window-y="43"
     inkscape:window-x="0"
     inkscape:window-height="1035"
     inkscape:window-width="2558"
     units="px"
     showgrid="false"
     inkscape:document-rotation="0"
     inkscape:current-layer="layer1"
     inkscape:document-units="mm"
     inkscape:cy="34.005376"
     inkscape:cx="52.996017"
     inkscape:zoom="5.3209302"
     inkscape:pageshadow="2"
     inkscape:pageopacity="0.0"
     borderopacity="1.0"
     bordercolor="#666666"
     pagecolor="#ffffff"
     id="base" />
  <metadata
     id="metadata5">
    <rdf:RDF>
      <cc:Work
         rdf:about="">
        <dc:format>image/svg+xml</dc:format>
        <dc:type
           rdf:resource="http://purl.org/dc/dcmitype/StillImage" />
        <dc:title></dc:title>
      </cc:Work>
    </rdf:RDF>
  </metadata>
  <g
     id="layer1"
     inkscape:groupmode="layer"
     inkscape:label="Layer 1">
    <path
       id="path833"
       d="M 5.8167674,5.6544752 C 5.1072983,6.1612388 5.7569925,5.6683658 5.2697922,6.1020004 5.1808258,6.1811854 4.9001481,6.3281266 5.0164206,6.3539335 5.5260464,6.4670463 5.9945695,5.9881245 6.4761125,5.7865573 7.294524,5.4439817 8.1250008,5.1309566 8.9479106,4.7993318 20.536291,0.12932705 0.68300022,8.1487718 19.665666,0.14422197 c 0.839223,-0.35388056 1.741326,-0.54335735 2.582199,-0.89329757 0.187938,-0.0782128 0.2898,-0.4580259 0.477899,-0.3802018 0.187571,0.077605 0.122041,0.41016949 0.06629,0.60535438 -0.257593,0.90182961 -0.677517,1.74943262 -0.99135,2.63326482 -1.957516,5.5128475 0.613861,-1.46100559 -1.675797,6.1364974 -0.609923,2.0238328 -1.523054,3.9457288 -2.178329,5.9553348 -0.177796,0.545268 -0.298165,1.107753 -0.46185,1.657421 -0.01668,0.05601 -0.02002,0.159359 -0.07841,0.156802 -0.819195,-0.03588 -1.387974,-1.53007 -1.611255,-1.777193 C 14.191855,12.463801 12.630448,10.632164 10.822565,9.0668027 9.8898989,8.2592499 8.7318344,7.7519399 7.6401646,7.1772522 6.8470454,6.7597302 6.0129888,6.4224412 5.1784183,6.0955541 4.8929483,5.9837401 4.6633151,6.2748588 4.7293241,6.0458291 c 0.014811,-0.051391 0.1092576,-0.00472 0.1599795,0.012237 0.3023547,0.1010983 0.5960936,0.2263402 0.8938969,0.3401478 0.5587071,0.2135134 1.1155566,0.4319209 1.6756335,0.6418151 2.552953,0.9567429 2.3802035,1.0187969 5.526691,1.2873995 1.956873,0.16705 7.964402,0.3074279 9.845553,0.1989 1.765237,-0.1018408 3.518033,-0.3641833 5.270852,-0.5967002 1.496579,-0.1985259 3.00088,-0.3714964 4.47525,-0.6961502 0.768474,-0.1692167 1.496801,-0.489408 2.228096,-0.7799155 0.106508,-0.04231 0.384698,-0.2069134 0.270234,-0.2125483 -2.586794,-0.127341 -4.3093,0.4067667 -6.943505,1.0939502 -3.276502,0.8547399 -5.75182,1.5619347 -8.751602,3.0829505 -1.075018,0.54508 -2.097753,1.195172 -3.082951,1.889551 -0.418491,0.294958 -0.729242,0.719231 -1.107692,1.064065 -0.06311,0.05751 -0.298118,0.156278 -0.214221,0.140425 2.505427,-0.47342 4.073821,-1.849347 6.316558,-2.956152 1.596707,-0.7879857 3.261602,-1.4305202 4.873051,-2.1879011 8.112945,-3.8130845 3.608451,-2.2981256 15.116405,-6.1659003 0.767514,-0.2579587 1.581248,-0.3514746 2.378041,-0.4954989 0.119147,-0.021536 0.31469,-0.1109205 0.363233,0 0.369684,0.8447418 -0.120571,1.9707852 -0.258598,2.7339242 -0.15407,0.8518195 -0.289537,1.7075865 -0.392732,2.5670539 -0.241435,2.0108026 -0.372216,4.0856372 -0.372216,6.1078002 0,0.03774 -0.01392,-0.07813 0,-0.113208 0.08246,-0.207731 0.200205,-0.400083 0.285732,-0.606573 0.155522,-0.375482 0.262313,-0.771283 0.436967,-1.138257 1.846366,-3.8794405 0.489127,-0.756308 2.884051,-4.7736017 0.516273,-0.8660059 0.945623,-1.7812798 1.392301,-2.6851507 0.249481,-0.5048332 0.470572,-1.02329 0.69547,-1.5395422 0.02652,-0.060876 0.09456,-0.239329 0.09867,-0.1730543 0.01598,0.2579456 0,0.5168814 0,0.775322 0,0.7506166 0.145409,1.5154518 0,2.2518491 -0.190937,0.96695 -0.619951,1.8729211 -0.9945,2.7846009 -0.377873,0.91976 -0.623613,1.9399835 -1.260316,2.7037579 -1.72805,2.072922 -4.939541,3.992999 -7.259852,5.270852 -1.000011,0.55073 -2.031871,1.046162 -3.082952,1.49175 -0.495363,0.21 -1.029073,0.314568 -1.544214,0.469856 -0.05942,0.01791 -0.140853,0.09836 -0.179403,0.04972 -0.0709,-0.08944 -0.03054,-0.22627 -0.04972,-0.338784 C 34.405424,17.4505 34.0757,15.36746 33.907968,15.07556 32.192306,12.089847 31.759075,12.244529 28.342439,10.412419 27.375257,9.8937859 26.364805,9.4590377 25.358938,9.0201188 24.799983,8.776214 24.218173,8.5883543 23.650648,8.3651168 c -0.05515,-0.02169 -0.216606,-0.093435 -0.159009,-0.079504 3.092519,0.7479728 0.73306,0.5056057 5.714262,0.6358331 3.712126,0.097049 7.42501,0.1989003 11.138403,0.1989003 1.857584,0 3.716245,-0.067883 5.569201,-0.1989003 0.289658,-0.020481 5.060162,-0.413104 6.231956,-0.9793345 0.220157,-0.106384 -0.48043,-0.1055939 -0.724844,-0.11264 -1.06036,-0.030569 -2.123348,-0.060865 -3.182401,0 -1.827752,0.1050432 -3.665696,0.1856406 -5.469752,0.4972502 -3.603308,0.6223897 -6.838707,1.8286074 -10.243352,3.0829504 -1.565534,0.576776 -3.145136,1.122503 -4.67415,1.790101 -0.829225,0.362055 -1.610055,0.828779 -2.386802,1.29285 -0.21569,0.128865 -0.53538,0.233166 -0.580961,0.480251 -0.02938,0.159274 0.327719,0.09237 0.483502,0.04806 0.68866,-0.195863 1.352374,-0.474156 2.010003,-0.757244 1.008031,-0.433926 1.99889,-0.90757 2.9835,-1.3923 1.170535,-0.576264 2.299224,-1.236727 3.480753,-1.790101 1.743895,-0.816761 7.979338,-3.4122773 9.547201,-3.9780009 1.469541,-0.5302461 2.97829,-0.9452975 4.475252,-1.3923004 0.945634,-0.2823729 1.898372,-0.5407073 2.851782,-0.7956002 0.03997,-0.010684 0.111689,-0.039461 0.124106,0 0.214847,0.6827342 -0.844463,1.1592602 -1.325385,1.6893547 -0.741765,0.8176112 -1.32791,1.7940637 -2.187901,2.4862507 -3.326495,2.6774241 -6.468247,4.6718761 -10.442252,6.0664511 -1.017868,0.357194 -2.108493,0.45701 -3.161546,0.690936 -2.522905,0.560441 -3.644132,1.129258 -5.966933,0.895051 -0.285922,-0.02883 -0.602769,-0.08832 -0.814459,-0.282666 -0.228939,-0.210175 -0.28239,-0.554113 -0.407093,-0.838778 -0.451288,-1.030156 -0.843712,-2.09934 -1.256572,-3.144306 C 25.033271,11.860395 24.820179,11.229486 24.537085,10.629168 24.333764,10.198013 24.02591,9.8216399 23.821547,9.3909773 23.119667,7.911875 23.443796,8.4692002 23.183486,7.3580669 c -0.116235,-0.4961535 -0.10484,-0.136444 -0.10484,-0.3982646 0,-0.034025 0.01492,0.076679 0.04565,0.091301 0.575075,0.2736906 1.128761,0.6044864 1.734402,0.8015094 3.832242,1.2466796 4.528081,1.0243831 9.049953,1.0939502 2.452809,0.037736 4.910108,0.1383726 7.359303,0 3.425042,-0.1935051 6.828012,-0.6722983 10.243352,-0.9945002 0.09901,-0.00934 0.397801,0 0.298349,0 -5.199121,0 -10.453291,2.0409191 -15.29239,3.8785513 -1.168231,0.443632 -2.320883,0.927243 -3.48075,1.3923 -0.817311,0.327707 -1.624317,0.682103 -2.45078,0.985991 -0.296092,0.108872 -0.598582,0.220522 -0.912608,0.250716 -0.05483,0.0053 -0.04804,-0.103391 -0.04688,-0.158462 0.008,-0.381888 0.06389,-0.761677 0.07423,-1.143509 0.01442,-0.532287 0.03974,-1.06645 0,-1.597446 -0.166752,-2.2277245 -0.465376,-5.4845685 -2.86162,-6.5914719 -1.520091,-0.7021812 -5.417436,-0.901745 -7.060951,-0.6961519 -0.681961,0.085309 -1.300066,0.4464889 -1.946833,0.6789555 -0.05187,0.018645 -0.202447,0.081936 -0.147906,0.073953 0.908728,-0.1330047 2.016045,-0.8549293 2.673144,-1.1014982 1.669362,-0.6264082 3.437721,-1.0423065 5.191293,-1.3586137 0.198275,-0.035765 0.339172,0.1309534 0.149175,0.4530473 -0.345452,0.5856314 -0.783656,1.1193494 -1.262179,1.6023783 -2.419116,2.4418943 -4.172124,3.8293963 -7.259852,5.4697516 -1.955626,1.038926 -5.687794,2.844145 -8.2875035,3.281851 -1.2134958,0.204313 -2.4542054,0.186106 -3.6796511,0.29835 -0.222667,0.02039 -0.5187005,0.26993 -0.6633845,0.09945 -0.1810946,-0.213382 -0.086146,-0.586971 0.03587,-0.838842 0.2910705,-0.600841 0.7148689,-1.135404 1.1611022,-1.632 1.5357144,-1.7090372 3.0754195,-3.4247918 4.7736019,-4.9725016 2.094362,-1.9087862 4.616701,-3.0206738 7.160402,-4.1769012 1.541476,-0.7006712 3.081231,-1.4148085 4.674151,-1.98900055 1.263699,-0.45551925 2.583166,-0.73841151 3.878551,-1.09395031 0.60821,-0.16693274 1.220075,-0.32036384 1.831935,-0.47338164 0.01971,-0.00493 0.07596,-0.013664 0.06094,0 -0.361916,0.3290419 -0.677392,0.73373621 -1.112901,0.95640989 C 24.222721,0.9740634 21.300664,1.4957913 18.355705,2.5335386 16.57329,3.1616279 14.837075,3.9140212 13.084853,4.6219893 10.523205,5.6569985 7.9342228,6.6758065 5.474477,7.9460324 5.4395975,7.9640453 5.5520748,7.9211457 5.5798119,7.8933663 5.943642,7.5289835 6.2480475,7.1026712 6.6445687,6.7741622 7.29725,6.2334303 8.0067633,5.7638111 8.7140295,5.2967368 9.8575904,4.5415361 10.969037,3.721708 12.19478,3.1088361 13.119365,2.646544 18.616995,0.61133227 19.852433,0.32423539 c 0.926882,-0.2153935 1.889936,-0.23069052 2.839109,-0.2983501 0.207177,-0.0147682 0.567488,-0.14899545 0.620961,0.05170686 0.107319,0.40280429 -0.101975,0.84253165 -0.282616,1.21821425 -0.446829,0.9292767 -1.034191,1.784646 -1.581465,2.6585462 -0.610002,0.9740654 -1.227369,1.9446777 -1.88955,2.8840509 -0.763985,1.0837918 -1.578324,2.1313812 -2.386801,3.1824005 -1.702627,2.213416 -2.528819,3.747319 -4.946795,5.059099 -0.732125,0.397186 -1.560488,0.596506 -2.3706759,0.789791 -0.4410795,0.105228 -0.9034619,0.08646 -1.3567336,0.09945 -0.078452,0.0022 -0.2047259,0.02059 -0.22918,-0.05399 -0.066983,-0.204278 0.019415,-0.430837 0,-0.644938 -0.082836,-0.913435 -0.1367242,-1.747239 -0.7803951,-2.486937 -0.790139,-0.908018 -2.70749,-1.997047 -3.7794226,-2.221977 -1.3795332,-3.8258417 -3.29331483,-0.163753 -4.922913,-0.3978 -0.00176,-2.53e-4 -0.00267,-0.1844839 0,-0.1848999 0.3161558,-0.049268 0.63481978,-0.091295 0.95466622,-0.1002421 0.87595855,-0.024503 1.75260238,0 2.62890358,0 1.6575004,0 3.3163254,0.066247 4.9725015,0 4.9755899,-0.1990238 9.9431189,-0.5684594 14.9175039,-0.7956002 2.28593,-0.1043806 4.574328,-0.1470515 6.862053,-0.1989003 0.637839,-0.014457 1.284375,0.1030113 1.914006,0 0.401566,-0.065699 -0.808514,-0.1071335 -1.215355,-0.1143032 -1.756678,-0.030957 -3.513902,0 -5.270852,0 -2.685151,0 -5.370302,0 -8.055453,0 -8.50347,0 -17.08969768,-0.2648863 -25.5586568,0.6961502 -0.7246765,0.082235 -2.0573732,-0.2681044 -2.1398202,0.4565481 -0.07868,0.6914974 1.3922469,0.021405 2.0878767,0 1.4594155,-0.044909 2.9188092,-0.1035828 4.3758011,-0.1989 2.0905488,-0.136765 4.17541438,-0.3514405 6.2653518,-0.4972502 14.9183984,-0.9041453 -1.67059176,0.1395314 12.9285064,-0.8950502 2.087421,-0.1479275 4.176534,-0.2711228 6.265352,-0.3978 1.190927,-0.072224 2.38401,-0.1100847 3.573815,-0.1989003 0.132631,-0.0099 0.519481,-0.084084 0.387087,-0.09677 -2.240028,-0.2146308 -4.8679,0.045646 -6.993211,0.2195348 C 13.517488,8.1981825 8.8753822,8.7055848 4.757525,9.3488702 3.2130447,9.5901466 1.682978,9.917056 0.1513754,10.229829 c -0.01949,0.004 -0.0198825,0.05905 0,0.05968 0.6356224,0.01988 1.2718666,0 1.9077998,0 10.8091408,0 -4.2945651,0.0557 8.0554528,-0.1989 1.883923,-0.03884 3.768705,-0.02326 5.652966,-0.0078 0.111627,9.26e-4 0.296202,-0.04958 0.330042,0.0568 0.166716,0.524081 -1.001506,0.631289 -1.956794,0.730782 -3.419386,0.35613 -6.9614212,0.372408 -10.2433496,-0.7956 C 3.3219948,9.8699276 2.5731212,9.7186471 2.3035544,9.1704865 1.3333489,7.1975863 3.5208056,5.7480617 4.9754392,5.2695585 5.7178119,5.0253545 7.4914317,4.8051796 8.2983717,5.1182955 8.5057905,5.1987799 8.574507,5.4868841 8.6156235,5.7055387 9.0134296,7.8210409 7.3847605,9.4540193 6.4036524,11.103744 c -0.1302269,0.218975 -0.2075934,0.465448 -0.303376,0.701531 -0.00579,0.01428 -0.011568,0.0564 0,0.04622 C 6.6309541,11.384677 7.2235818,10.97379 7.669173,10.425166 8.3168836,9.6276868 8.7589325,8.6817583 9.3545971,7.8446886 10.150319,6.7264843 10.988036,5.6381353 11.840848,4.5628377 12.511367,3.7173902 13.241854,2.9210341 13.923162,2.0842563 14.080455,1.8910691 14.215705,1.6808265 14.35536,1.4745285 14.3783,1.4406335 14.4154,1.3240881 14.41028,1.3646973 c -0.215997,1.710849 -0.308512,1.2076325 -0.96809,3.5367523 -0.25977,0.9173056 -0.342948,1.8883352 -0.694475,2.7745398 -0.807977,2.0369263 -1.492002,2.8069476 -3.1697842,4.0637236 -0.3647562,0.273228 -1.6030892,1.160779 -2.3630461,1.130795 -0.07546,-0.003 -0.095615,-0.126887 -0.1023848,-0.202102 -0.027952,-0.310546 -0.1890977,-0.687489 0,-0.935406 1.1414694,-1.496523 2.4253709,-2.9022747 3.8581411,-4.1228087 0.904596,-0.7705984 2.020081,-1.2586655 3.082951,-1.7901005 2.168723,-1.0843617 2.622938,-1.2713885 4.588286,-1.5781882 0.02779,-0.00434 -0.0364,0.043851 -0.05966,0.059662 C 17.6919,4.9067457 16.847908,5.5892723 15.902426,6.1040187 12.998818,7.6848233 9.9564279,9.0011188 7.0513767,10.57927 6.1769508,11.054296 5.3869343,11.671696 4.5804222,12.254627 4.4430444,12.353921 4.150787,12.771772 4.2272513,12.620493 4.4511288,12.177571 4.7620605,11.784321 5.0294648,11.366236 5.4592233,10.539273 5.9155872,9.7256019 6.3187399,8.8853477 6.9526353,7.5641778 7.6979115,5.4544303 8.5907247,4.2335643 8.805003,3.9405517 9.1469817,3.7577416 9.4680962,3.5884577 c 0.1021215,-0.053836 0.283722,-0.096992 0.3463298,0 0.217421,0.3368268 0.323596,0.7426365 0.388416,1.1382655 0.262542,1.6024299 0.469604,3.2161829 0.590324,4.8354845 0.0764,1.0248063 0.07671,2.0581673 0,3.0829513 -0.05475,0.731393 -0.251101,1.445354 -0.392856,2.164965 -0.03399,0.172552 0.02962,0.574409 -0.134137,0.51027 -0.174682,-0.06842 0.0073,-0.375349 0,-0.562809 -0.02583,-0.660499 0.01561,-1.329604 -0.09945,-1.980517 C 9.9819816,11.731952 9.662689,10.7146 9.3711227,9.6941168 9.0658002,8.6254877 8.7147179,7.5704323 8.3766222,6.5117159 8.160799,5.8358841 7.9222446,5.1674103 7.7094166,4.4906295 7.6539668,4.3143019 7.4832863,4.1154844 7.5720992,3.9533785 7.6384297,3.8323083 7.7253591,4.1853836 7.8234102,4.2825622 8.2390093,4.6944629 8.5938819,5.2007708 9.1096048,5.4772025 11.329699,6.6671896 13.5055,6.8475724 15.97166,7.1678529 c 1.256111,0.1631313 2.515459,0.3104179 3.779101,0.3978 1.614122,0.1116182 3.235,0.098404 4.849852,0.1989003 0.03434,0.00214 0.0381,0.1026707 0.0037,0.1031496 -1.265535,0.017616 -11.767086,-0.054508 -13.58037,0.09945 C 9.5467402,8.0925751 8.0970018,8.4486865 6.6481374,8.762753 6.3241091,8.8329917 5.9460698,8.8757841 5.7187525,9.1171439 5.500788,9.3485731 4.739718,10.663932 5.0376224,11.252233 5.1685898,11.510867 5.4514069,11.673622 5.7110344,11.80261 7.2927008,12.588412 8.8589383,10.906758 9.9959685,10.198393 21.124301,3.2654912 0.58696327,16.284162 20.537675,2.7396392 21.691226,1.9564945 23.001578,1.4332449 24.217326,0.7506386 24.2687,0.72179348 24.378724,0.58379531 24.327016,0.61203741 20.621895,2.6357092 19.427275,3.2811085 15.973214,6.2806876 14.411835,7.636621 11.276581,11.28391 10.105662,12.844389 c -0.56034,0.746764 -1.0164613,1.567237 -1.4849034,2.374825 -0.081183,0.139958 -0.092281,0.311182 -0.1586958,0.458721 -0.00654,0.01453 -0.047175,0.01592 -0.047798,0 -0.060701,-1.551588 0.027617,-1.655088 0.493766,-3.477242 0.9821854,-3.8393145 1.9962652,-6.2371035 4.9662982,-9.0446327 0.729943,-0.6900047 1.592829,-1.2287283 2.440678,-1.7673169 0.04804,-0.03052 0.867016,-0.3921465 0.97768,0.00815 0.269526,0.9749286 0.206205,4.472523 0.177746,4.9278661 -0.06669,1.0669738 -0.175966,2.1366141 -0.3978,3.1824009 -0.45381,2.1393906 -1.317675,4.5835036 -2.480308,6.4543486 -0.611914,0.984659 -1.711784,2.424377 -3.187129,1.996503 -0.424975,-0.12325 -0.502298,-0.732207 -0.80164,-1.058072 C 9.2455139,15.421574 7.9572039,13.862789 6.4379448,12.550656 5.7224728,11.932726 4.7799825,11.641296 3.9633482,11.165014 3.6937897,11.0078 3.4438209,10.819111 3.1808864,10.651053 c -0.031229,-0.01996 -0.09945,-0.01266 -0.09945,-0.04972 0,-0.03706 0.062435,-0.04785 0.09945,-0.04973 0.7140424,-0.03616 1.4314464,-0.0043 2.1439208,-0.06388 1.1309324,-0.0945 2.2542008,-0.2652 3.3813009,-0.3978 C 10.396759,9.8910229 12.107646,9.8212152 13.77806,9.4932226 16.153928,9.0267114 18.463323,8.2675044 20.819819,7.711347 c 0.716634,-0.1691333 1.448486,-0.2657326 2.173715,-0.3930716 0.02132,-0.00374 0.08538,-0.0071 0.06493,0 -0.626294,0.2173825 -1.288913,0.3434197 -1.885757,0.6319967 -1.501764,0.7261101 -3.281284,2.1263339 -4.332559,3.3570939 -0.555258,0.650059 -3.181828,4.902016 -3.580201,5.569202 -0.422199,0.707088 -0.808614,1.434944 -1.216078,2.150625 -0.208556,0.366315 -0.307537,0.55028 -0.362027,0.408914 -0.293225,-0.760731 -0.263132,-3.449992 -0.26485,-3.491568 -0.03014,-0.72943 -0.111416,-1.457945 -0.09945,-2.1879 0.05113,-3.118732 0.162397,-4.5413844 0.895054,-7.5582025 0.269763,-1.1107867 0.692757,-2.1793215 0.9945,-3.2818508 0.179609,-0.6562672 0.3068,-1.3258371 0.448666,-1.99128435 0.0079,-0.0369233 0.0124,-0.14891837 0,-0.11325915 -0.122999,0.3537692 -0.213916,0.7180577 -0.333665,1.0729407 -0.250672,0.7428858 -0.575437,1.4623476 -0.777445,2.219915 -0.332972,1.248705 -0.629072,3.2246848 -0.292486,4.5024463 0.157472,0.5978014 0.397974,1.3040825 0.942117,1.5974648 1.342709,0.72394 4.359319,1.637245 6.293091,1.338341 0.246703,-0.03813 0.410875,-0.296432 0.647238,-0.37674 1.108989,-0.376796 2.25057,-0.650026 3.371766,-0.988776 0.369402,-0.111609 1.455359,-0.5116091 1.099577,-0.362164 -0.414132,0.1739549 -0.861261,0.261248 -1.275102,0.435892 -4.327211,1.826121 -1.740586,1.256351 -8.09983,3.108785 -1.46716,0.42738 -3.003707,0.582468 -4.475251,0.9945 -1.0200154,0.285604 -1.9812749,0.751105 -2.983501,1.09395 -0.2380382,0.08143 -0.48817,0.122085 -0.7335501,0.177595 -0.016743,0.0038 -0.063294,0.01247 -0.051497,0 0.361034,-0.38166 0.7077821,-0.780939 1.1099749,-1.118949 0.8283422,-0.696156 1.7161968,-1.318258 2.5742952,-1.977386 1.292849,-0.928201 2.657384,-1.763927 3.878548,-2.784601 1.00719,-0.8418309 1.803496,-1.9125078 2.784601,-2.7846007 1.110534,-0.9871424 2.426103,-1.7379616 3.48075,-2.7846025 1.098767,-1.0904246 1.983527,-2.3776057 2.944132,-3.59150467 0.02667,-0.0337035 0.01346,-0.16975608 0,-0.12893934 -0.139744,0.42366475 -0.253105,0.85558151 -0.380683,1.28306711 -0.19707,0.6603355 -0.440754,1.3083655 -0.593259,1.9803934 -0.178499,0.786575 -0.237243,1.5963677 -0.3978,2.3868006 -1.468872,7.2313731 -0.397222,0.7920242 -1.49175,7.5582021 -0.990364,6.122246 -0.114632,0.330095 -0.69615,6.057596 -0.166967,1.644491 -0.158851,0.278245 -0.158851,0.750688 0,0.0157 0.0066,-0.03287 0,-0.0471 C 19.874241,20.067331 19.666608,19.72776 19.522695,19.360041 18.936892,17.863227 18.513398,16.301732 17.853599,14.83603 17.323601,13.658674 16.585014,12.586749 15.964048,11.454729 15.596841,10.785312 15.23871,10.110845 14.889236,9.4320012 14.80681,9.2718891 14.744017,9.102392 14.668812,8.9387631 c -0.02415,-0.052553 -0.10072,-0.1021807 -0.0776,-0.1551964 0.03707,-0.084989 0.331502,0.046631 0.739933,0.3019436 1.36987,0.856316 -0.08324,0.3480729 2.45062,0.9304957 0.650425,0.149504 1.296281,0.343815 1.960927,0.404228 1.025621,0.09322 3.542071,0 4.675669,0 0.0156,0 -0.0312,0 -0.04679,0 -0.198324,0 -0.398326,-0.02575 -0.594971,0 -0.477765,0.06256 -0.949297,0.166736 -1.421217,0.264028 -0.597777,0.123238 -1.183014,0.312263 -1.787388,0.39746 -0.759682,0.10709 -1.550384,-0.008 -2.294689,0.177977 -1.116286,0.27896 -4.601461,1.881393 -5.537589,2.469583 -0.44953,0.282449 -0.783875,0.716591 -1.161837,1.089419 -0.04002,0.03948 -0.112043,0.156666 -0.05588,0.159123 0.360488,0.01577 0.742252,0.120141 1.082497,0 0.492139,-0.173774 0.884406,-0.554838 1.316766,-0.847179 2.425694,-1.640137 1.937253,-1.552781 4.858228,-4.9752879 C 19.463752,8.3489214 20.175523,7.554733 20.762967,6.6721505 21.06118,6.224112 21.210376,5.6927371 21.41227,5.19383 c 0.01578,-0.038993 0.01468,-0.1656156 0,-0.1261943 -0.238582,0.6408298 -0.448301,1.2920403 -0.674317,1.937409 -0.196522,0.5611522 -0.47967,1.0985352 -0.593295,1.6821465 -1.702312,8.7435798 1.882025,-5.4307649 -0.9945,5.4697518 -0.359058,1.360638 -0.706995,2.724482 -1.09395,4.077451 -0.208453,0.728844 -0.264076,1.573702 -0.76692,2.140989 -0.013,0.01466 -0.0027,-0.03938 0,-0.05878 0.05558,-0.39618 0.06922,-0.801505 0.17482,-1.187376 0.222155,-0.811798 0.574567,-1.583688 0.805021,-2.393168 0.594614,-2.088612 0.01939,-0.324978 0.152301,-1.27529 7.15e-4,-0.0051 0.09487,-0.09066 0.09709,-0.09709 0.0098,-0.02827 0,-0.05983 0,-0.08974 0.03793,-0.137993 0.06589,-0.279126 0.1138,-0.413982 0.0081,-0.02292 0.04549,-0.02806 0.05161,-0.05161 0.05345,-0.205809 0.0488,-0.426892 0.124276,-0.625684 0.03052,-0.08038 0.144379,-0.105224 0.182475,-0.182302 0.103386,-0.209176 0.107501,-0.754763 0.442894,-0.82039 0.252934,-0.04949 0.357065,0.152057 0.591268,0.285494 0.357846,0.203885 0.458263,0.18761 0.883031,0.342069 0.122393,0.04451 0.141007,0.124016 0.239399,0.172341 0.04705,0.02311 0.112217,0.01256 0.149175,0.04973 0.119174,0.119848 0.180245,0.556492 0.201729,0.638265 0.03887,0.147944 0.107615,0.288853 0.129484,0.440247 0.01,0.06915 -0.0086,1.383111 -0.196411,1.213774 -0.270373,-0.243732 -0.133662,-0.457095 -0.209226,-0.742106 -0.02703,-0.101969 -0.18719,-0.228327 -0.107638,-0.29761 0.204161,-0.177805 1.060584,-0.414544 1.090909,-0.421718 0.108142,-0.02558 0.224273,0.02109 0.33338,0 0.158709,-0.03068 0.301126,-0.12383 0.460053,-0.153355 0.119761,-0.02225 0.244178,0.01165 0.365429,0 0.06099,-0.0059 0.264382,-0.159765 0.299698,-0.05138 0.09788,0.300394 -0.123291,0.474785 -0.351996,0.650347 -0.392946,0.301638 -0.795332,0.592967 -1.217219,0.852588 -0.259149,0.159475 -0.546913,0.266925 -0.820026,0.40109 -0.07895,0.03878 -0.238237,0.187191 -0.244418,0.09945 -0.03574,-0.507321 -0.06039,-1.167981 0,-1.676781 0.02826,-0.238089 0.104507,-0.468173 0.145733,-0.704363 0.579206,-3.318379 -0.579226,2.60722 0.652665,-3.324119 0.05144,-0.247662 0.191837,-0.509083 0.115002,-0.750078 -0.05063,-0.158813 -0.329361,0.126135 -0.425941,0.261994 -0.138552,0.194901 -0.565221,1.4621 -0.580675,1.510758 -0.671976,2.115692 -0.621648,2.694147 -2.072857,4.904779 -0.216639,0.330007 -0.599,0.533467 -0.959665,0.693959 -0.971551,0.43233 -1.988619,-0.327655 -2.776437,-0.786498 -0.288514,-0.168038 -0.603105,-0.305979 -0.848336,-0.532559 -0.172751,-0.159613 -0.768873,-0.995626 -0.620512,-1.35497 0.290675,-0.704048 0.647176,-1.426726 1.213206,-1.936417 1.213477,-1.092694 4.937675,-2.197577 6.118799,-2.563002 1.510776,-0.4674159 3.03473,-0.893117 4.565597,-1.2898155 0.258718,-0.067043 0.538745,-0.025588 0.7956,-0.09945 1.270812,-0.3654369 2.708089,-0.4549404 3.764975,-1.2496083 0.0158,-0.011882 -0.04112,-0.00772 -0.05932,0 -0.475309,0.2016033 -0.986108,0.3412263 -1.416722,0.6260666 -1.221346,0.8078931 -1.551292,1.6079865 -2.219312,2.9148322 -0.143647,0.281017 -0.304196,0.566729 -0.353034,0.87853 -0.148717,0.949465 0.130555,2.34393 0.289712,3.218523 0.05266,0.289384 0.263381,0.975002 -0.01506,0.75353 C 25.616452,15.576123 25.177557,14.72737 25.041592,13.813186 24.598059,10.830996 24.6722,10.775099 24.6722,8.2210737 c 0,-0.3514106 0,-0.7028212 0,-1.0542315 0,-0.033756 -0.03054,-0.086894 0,-0.1012679 0.03448,-0.01623 0.08666,0.018431 0.100888,0.053786 0.179169,0.4452358 0.232184,0.9437486 0.468606,1.3614103 0.26482,0.4678283 0.609049,0.9000506 1.012577,1.2552379 0.368223,0.3241125 2.21479,1.5150905 2.893957,1.8387535 0.246854,0.117641 1.143926,0.299058 1.445437,0.553385 0.06231,0.05256 -0.121848,0.114572 -0.198104,0.143379 -0.278437,0.105185 -0.563724,0.191469 -0.842923,0.294614 -0.158654,0.05861 -0.309885,0.136855 -0.470281,0.190523 -0.223842,0.0749 -0.474593,0.07985 -0.680841,0.194639 -0.474814,0.264256 -0.874009,0.648691 -1.33917,0.929591 -0.163783,0.09891 -0.376381,0.09898 -0.53679,0.203262 -0.211335,0.137393 -0.374159,0.337897 -0.559086,0.50919 -0.04068,0.03768 -0.09511,0.06696 -0.117629,0.117632 -0.0357,0.08035 -0.02277,0.175358 -0.04972,0.25905 -0.04941,0.153394 -0.143141,0.349442 -0.197972,0.496322 -0.02105,0.05638 0.385517,0.106311 0.42293,0.143724 0.0834,0.08341 0.183741,0.236648 0.288183,0.288183 0.11329,0.0559 0.238429,0.07675 0.34679,0.147885 0.01783,0.01172 0.03019,0.03019 0.04528,0.04528 0.05028,0.05028 0.09006,0.113938 0.150845,0.150841 0.144158,0.08753 0.146401,-0.101252 0.146401,0.22227 0,0.116335 0.06812,0.254703 0,0.349006 -0.125084,0.173155 -1.567875,0.702096 -1.756025,0.761357 -0.07068,0.02226 -0.303464,0.0048 -0.349028,-0.05068 -1.201104,-1.46369 0.122435,-3.151335 1.479326,-4.059703 0.927739,-0.621072 2.068683,-0.840915 3.112335,-1.237422 0.339164,-0.128856 0.715729,-0.454875 1.04535,-0.303261 0.01426,0.0066 0.01111,0.03603 0,0.04711 -0.233614,0.232834 -0.460325,0.476317 -0.723993,0.674471 -0.426852,0.32079 -0.893635,0.584678 -1.340453,0.877017 -1.332376,0.91074 -2.71143,1.756691 -3.997127,2.73222 -0.252933,0.191914 -0.404873,0.489851 -0.589665,0.748033 -0.05456,0.07623 -0.183557,0.325329 -0.125763,0.251527 0.297346,-0.379711 0.555072,-0.789123 0.847231,-1.172839 0.05477,-0.07194 0.134974,-0.121473 0.191798,-0.191801 2.403296,-2.974447 1.223181,-1.696967 3.664197,-4.354062 1.525135,-1.6601379 1.73701,-1.8931744 3.364711,-3.3715613 0.137856,-0.1252077 0.285486,-0.2398106 0.437073,-0.3479842 0.01373,-0.00979 0.05381,-0.016544 0.05058,0 -0.393189,2.0125756 -0.266938,0.2126406 -0.833172,3.3196695 -0.511702,2.807799 -0.430819,3.927815 -0.495412,6.891309 -0.0223,1.022807 -0.07026,0.597192 0.627335,1.753335 0.02267,0.03759 0.116626,0.110201 0.113758,0.06639 -0.137234,-2.095267 -0.205243,-2.304375 -1.126006,-4.667414 -0.301283,-0.773213 -0.741526,-1.485633 -1.07339,-2.246223 -0.200272,-0.45899 -0.325401,-0.948131 -0.521452,-1.408938 -0.09066,-0.213086 -0.217826,-0.408925 -0.33655,-0.607745 -0.01942,-0.03252 -0.128804,-0.05272 -0.112093,-0.01872 0.1789,0.363915 0.37148,0.72247 0.592068,1.062733 0.06426,0.09913 0.155036,0.183669 0.255868,0.245222 2.405518,1.468456 1.785308,1.105026 4.842587,1.802821 0.622784,0.142144 1.239184,0.337614 1.87551,0.393781 0.858562,0.07578 1.7238,0 2.585701,0 0.259675,0 0.710012,0.250337 0.779029,0 0.0846,-0.306836 -0.268029,-0.659642 -0.567272,-0.768076 C 31.478259,10.938022 37.532071,14.092016 32.06053,11.783081 31.306651,11.464951 28.395924,9.9265318 27.809674,9.2162211 27.29068,8.5874018 27.320197,7.9820084 27.320197,7.3151438 c 0,-0.2104374 -0.138141,-0.812274 0.299353,-0.8726887 1.12451,-0.1552863 2.002612,-0.2071026 2.898796,0.4782209 0.240225,0.1837047 0.466304,0.4227539 0.567745,0.7076498 0.09916,0.2784893 0.08835,0.604746 0,0.8868497 -0.330448,1.0550734 -0.700418,2.1115025 -1.241128,3.0758735 -0.545516,0.972941 -3.218884,4.10336 -3.779102,5.171401 -0.351002,0.66918 -0.455213,1.441564 -0.652719,2.170944 -0.02087,0.07706 -0.06489,0.286031 0,0.239518 0.111818,-0.08015 0.132282,-0.242121 0.182383,-0.370252 0.664015,-1.698184 1.269544,-3.419343 1.959382,-5.107203 0.494077,-1.20889 1.060799,-2.3868 1.591198,-3.580201 0.464101,-1.29285 0.898711,-2.5966701 1.392301,-3.8785509 0.335479,-0.8712539 0.72475,-1.7208508 1.093949,-2.578359 0.134615,-0.3126571 0.210238,-0.6619195 0.417439,-0.9320012 0.09849,-0.1283808 -0.01,0.3303067 -0.07085,0.480227 -0.319863,0.7877418 -0.749578,1.5280907 -1.065192,2.3175457 -1.241126,3.104489 -1.414565,3.9766367 -0.603326,7.9478744 0.180501,0.883604 0.521147,1.906319 1.289523,2.378476 1.290127,0.792766 2.906453,0.886282 4.402653,1.119289 1.329344,0.207022 4.273468,0.313422 5.103268,-1.29309 0.09265,-0.179382 0.03285,-0.406485 0,-0.605693 -0.07402,-0.448849 -0.05873,-0.953688 -0.318696,-1.327 -0.954125,-1.370118 -2.807219,-1.938985 -4.21059,-2.527274 -1.509818,-0.632911 -3.057062,-1.176532 -4.552881,-1.8418591 -0.762751,-0.3392654 0.446117,-0.6756363 0.575128,-0.6840072 1.243562,0.03315 2.487123,0.0663 3.730683,0.09945 0.0663,0.0663 0.117001,0.1532499 0.1989,0.1989 0.853877,0.4759492 1.73005,0.9107829 2.598193,1.3601903 1.361503,0.704805 1.538695,0.495916 2.21865,2.262258 0.193741,0.503288 0.220744,2.659229 0.173903,3.130585 -0.02808,0.282593 -0.164841,0.54354 -0.243629,0.816377 -0.02029,0.07029 -0.103293,0.266494 -0.05357,0.212831 0.251937,-0.271919 0.459595,-0.582101 0.675135,-0.883688 0.536956,-0.751312 1.060463,-1.512194 1.581891,-2.274363 1.37573,-2.010907 2.700282,-4.0565299 4.077451,-6.0664523 0.618617,-0.9028493 1.207937,-1.8288621 1.889549,-2.6851509 0.321032,-0.4033001 0.817459,-1.5059117 1.107207,-1.0795812 0.69465,1.022096 -1.17439,3.8841801 -1.687185,4.3520542 -2.20345,2.0104312 -8.42356,3.2001022 -10.035566,3.5721032 -1.800188,0.415428 -3.654748,0.550059 -5.46975,0.895051 -0.243096,0.04621 -0.492627,0.12544 -0.689274,0.275642 -0.08699,0.06645 0.219216,0.0079 0.328396,0 0.807868,-0.05843 1.623375,-0.06249 2.421781,-0.1989 2.697941,-0.460959 5.371571,-1.054424 8.055454,-1.5912 1.128393,-0.225679 2.257962,-0.44652 3.381301,-0.696151 0.965409,-0.214535 1.910408,-0.5227616 2.884051,-0.6961497 1.449297,-0.2580941 2.92377,-0.3544567 4.375801,-0.5967002 0.934066,-0.1558311 1.851898,-0.3968864 2.777553,-0.5967002 0.266721,-0.057575 1.056696,-0.084152 0.799563,-0.175464 -0.531312,-0.1886794 -1.127739,-0.010441 -1.691463,0 -1.657548,0.030695 -3.315372,0.051184 -4.972502,0.09945 -5.931924,0.1727745 -5.588521,0.1626716 -12.033454,0.8950502 -2.124437,0.2414135 -4.271459,0.3603511 -6.3648,0.7955999 -1.272834,0.264649 -2.462948,0.834838 -3.679651,1.292851 -0.184914,0.06961 -0.686898,0.184294 -0.518379,0.287445 0.513572,0.314365 1.145302,0.420141 1.745856,0.463911 1.981697,0.144431 3.973658,0.144567 5.960057,0.09771 2.25747,-0.05325 4.511749,-0.217075 6.762601,-0.3978 4.51984,-0.362907 9.07151,-0.839466 13.496999,-1.880148 0.265666,-0.062474 -0.525161,-0.1610625 -0.796652,-0.1889152 -0.991502,-0.1017206 -1.987055,-0.1759931 -2.9835,-0.1988999 -1.889051,-0.043427 -3.780264,0.066259 -5.668653,0 C 40.520051,9.3663541 41.72168,8.8432602 35.017776,9.1942286 c -1.696836,0.088834 -3.374131,0.4051239 -5.062865,0.5930643 -0.08816,0.00981 -0.353746,-0.013639 -0.2661,0 0.775198,0.1206384 1.547852,0.2849541 2.331532,0.3214281 1.523254,0.0709 3.049802,0 4.574702,0 1.790102,0 3.580492,-0.03225 5.370303,0 4.858253,0.08754 9.841651,0.23835 14.610432,1.267918 0.11534,0.0249 -0.232259,0.05 -0.35025,0.05137 -1.353852,0.01576 -2.712996,0.117491 -4.061833,0 C 50.45883,11.279506 48.784026,10.887 47.091745,10.632409 45.038015,10.32344 42.988124,9.9828682 40.925845,9.7373587 31.380348,8.6009899 33.36204,8.8661085 27.450785,8.4445082 c -0.04807,-0.00343 0.09767,-0.011065 0.144579,0 1.500267,0.3538903 2.989342,0.7550523 4.493067,1.0939502 1.585595,0.3573494 3.173627,0.7083266 4.773602,0.9945006 4.74087,0.847961 11.634674,1.84694 16.309803,2.287351 1.618538,0.15247 3.250197,0.102727 4.873053,0.1989 0.596347,0.03534 1.248691,0.465646 1.781493,0.195458 C 60.120336,13.065601 59.802992,12.411003 59.5,12.281313 58.317685,11.775265 52.245453,11.099157 51.444549,10.988463 44.924911,10.087375 42.8679,9.5723698 36.328144,9.2978125 33.289632,9.170247 30.246116,9.2321895 27.205115,9.1983625 c -0.06086,-6.879e-4 0.121798,-0.00266 0.18261,0 1.453737,0.06364 2.906035,0.168857 4.360857,0.1989 3.579437,0.073917 7.1604,0 10.740601,0 1.682557,0 3.365111,0 5.047666,0 0.105902,0 0.423603,0 0.317701,0 -2.676904,0 -5.365327,0.046106 -8.039471,0 -5.650843,-0.097428 -11.293842,-0.3978003 -16.947561,-0.3978003 -0.397074,0 0.794147,0 1.191221,0 1.359151,0 2.720208,0.071975 4.077452,0 2.940468,-0.1559338 8.942676,-0.612975 12.630153,-1.0939502 1.097142,-0.1431054 2.194491,-0.2926794 3.281852,-0.4972502 0.297703,-0.056009 0.616918,-0.1069917 0.863697,-0.2826745 0.07554,-0.053779 -0.01243,-0.2463837 -0.104444,-0.2578391 C 43.626545,6.7207404 42.42961,6.7580244 41.242938,6.6688482 35.957349,6.2716454 37.791162,6.1389399 32.491336,6.271048 31.680407,6.291262 30.868202,6.33668 30.06371,6.4406363 c -0.05264,0.0068 -0.103127,0.1393638 -0.05129,0.150735 2.395305,0.5254011 5.872244,0.7264784 8.060753,0.8259559 2.583882,0.1174493 5.170898,0.1565034 7.757102,0.1989002 1.458405,0.023908 2.917317,0.018365 4.375801,0 0.507664,-0.00639 1.205111,0.3229706 1.521304,-0.074254 0.278916,-0.3503932 -0.88627,-0.1452779 -1.333834,-0.1612603 -1.98801,-0.070991 -3.977867,-0.07577 -5.967002,-0.09945 -7.072945,-0.084202 -10.378014,-0.2359782 -16.807055,0.09945 -0.128704,0.00672 -5.691851,0.1890969 -7.236616,0.7839852 -0.17994,0.069295 0.374306,0.1103763 0.567091,0.1141455 1.756614,0.034346 3.513901,0 5.270851,0 7.154234,0 6.908603,0.1287182 14.121904,-0.3978 2.158169,-0.1575308 4.309433,-0.3985559 6.464252,-0.5967002 0.729232,-0.067056 2.536039,0.4453623 2.187901,-0.1989 -0.376127,-0.6960552 -1.579073,-0.1042207 -2.369561,-0.1372812 -1.889062,-0.079006 -3.778081,-0.1757029 -5.668653,-0.1989 -3.513635,-0.043112 -7.028341,-0.061638 -10.541704,0 -0.134696,0.00235 -7.157511,0.1828708 -9.003128,0.5920719 -0.08736,0.01937 0.02156,0.2336284 0.110352,0.244719 0.875532,0.1093568 1.762873,0.1106466 2.645137,0.09945 4.343441,-0.05512 8.692625,-0.027392 13.027955,-0.29835 0.563578,-0.035224 14.000287,-1.8406057 14.831425,-1.9633004 0.201509,-0.029747 -0.407387,0 -0.611079,0 -2.088451,0 -4.18056,-0.1235432 -6.265352,0 -0.499737,0.029614 -14.960121,1.6839641 -15.016953,1.6906504 -9.895223,1.1641437 -4.283873,0.3398655 -11.237855,1.6906505 -0.218069,0.042359 -0.88103,0.056745 -0.660841,0.08616 2.047591,0.2735398 3.332128,-0.2107117 5.54392,-0.5353785 6.412608,-0.9413002 7.515447,-1.1492997 13.923005,-1.5912004 1.555766,-0.1072941 3.114706,-0.1916846 4.67415,-0.1989 0.743254,-0.00344 1.529726,-0.099633 2.223521,0.1669841 0.199837,0.076796 -0.01632,0.5089323 -0.205917,0.6083575 -1.327177,0.6959647 -2.7491,1.2029188 -4.167936,1.6852725 -2.768394,0.941156 -6.367995,1.917678 -9.348303,2.386801 -2.278669,0.358679 -4.571005,0.626568 -6.862053,0.89505 -1.952576,0.228818 -3.909644,0.419183 -5.867552,0.5967 -0.601955,0.05458 -1.212419,0.01241 -1.810544,0.09945 -0.371803,0.05411 0.753824,0.04226 1.127159,0 0.801456,-0.09073 1.58386,-0.321329 2.386801,-0.3978 1.288718,-0.122735 2.586688,-0.115554 3.878551,-0.1989 1.791281,-0.115566 3.580403,-0.262498 5.370302,-0.3978 1.450755,-0.109665 2.901116,-0.449736 4.351644,-0.337101 0.460986,0.0358 -0.809731,0.478099 -1.26139,0.577064 -5.576417,1.221878 -6.452399,0.818311 -11.735105,2.187901 -0.923921,0.239535 -1.791781,0.658496 -2.68515,0.9945 -0.290554,0.10928 -1.12438,0.168528 -0.866479,0.341301 0.910247,0.609796 3.167126,0.458564 4.148894,0.458564 3.201566,0 4.866134,0.228438 7.856554,-0.49725 0.569423,-0.138183 1.715521,-0.891536 0.962128,-1.775278 -0.664152,-0.77906 -1.674484,-1.186159 -2.572583,-1.677534 C 25.776501,11.449541 24.182421,10.756626 22.62408,9.9947702 21.19892,9.2980255 19.70802,8.7224946 18.347729,7.9063198 16.86669,7.0176966 16.077389,6.5792661 15.821878,5.0892842 c -0.0091,-0.053001 0.09983,-0.057658 0.153151,-0.050699 0.53296,0.069557 1.172114,-0.062134 1.588299,0.2779762 1.192334,0.9743895 2.189658,2.1978475 3.024552,3.491698 1.002407,1.5534496 1.270756,5.1815696 1.486718,6.6514426 0.388945,2.64722 0.366443,1.632457 0.366443,2.929327 0,0.0155 0.0037,-0.03147 0,-0.04651 -0.15971,-0.644352 -0.288862,-1.297682 -0.489985,-1.930332 -0.625671,-1.968109 -1.26429,-3.933717 -1.989,-5.867551 -0.0538,-0.143572 -1.114432,-2.6220719 -1.663803,-3.0454507 -0.106685,-0.082218 -0.102053,0.2715906 -0.06009,0.3995785 0.13538,0.4129334 0.387083,0.778197 0.574727,1.1701555 0.265177,0.5539118 1.314672,2.3892267 1.15221,3.1618267 -0.188607,0.896934 -2.484257,-0.31018 -2.513135,-0.319158 -0.98103,-0.304994 -1.97701,-0.562859 -2.978068,-0.793785 -1.152948,-0.265965 -2.315425,-0.491095 -3.480748,-0.696151 -0.719402,-0.126589 -1.4446469,-0.220666 -2.1709591,-0.29835 -0.2050015,-0.02193 -0.7537849,-0.1555878 -0.6185125,0 0.1901405,0.218697 0.5455235,0.214709 0.8334857,0.24726 1.6194389,0.183059 3.2457589,0.308224 4.8730479,0.3978 5.037825,0.277311 7.857875,0.1989 13.027955,0.1989 2.353651,0 4.7073,0 7.060951,0 1.023842,0 2.053201,0.106131 3.071527,0 0.630555,-0.06572 -1.264095,-0.111343 -1.89797,-0.12231 -4.422616,-0.07652 -6.279158,-0.07057 -10.740602,0.497251 -1.800271,0.229125 -3.605209,0.473245 -5.370302,0.89505 -2.191926,0.523806 -4.350636,1.19172 -6.477733,1.93628 -0.303787,0.106336 -0.685459,0.34339 -0.700168,0.664914 -0.0056,0.122985 0.238623,0.06175 0.355019,0.101857 0.115838,0.03992 0.21534,0.118051 0.328766,0.164383 0.310794,0.126954 0.650624,0.239559 0.977232,0.318248"
       style="fill:none;stroke:#000000;stroke-width:0.26458333;stroke-linecap:butt;stroke-linejoin:miter;stroke-opacity:1;stroke-miterlimit:4;stroke-dasharray:none" />
  </g>
</svg>
